<svg width="482" height="196" viewBox="0 0 482 196" fill="none" xmlns="http://www.w3.org/2000/svg">
<g clip-path="url(#clip0_119_13490)">
<path d="M152.725 178.878C150.256 177.6 147.952 176.027 145.862 174.193C130.976 163.4 96.5781 134.748 90.6305 96.8644C84.4428 57.585 93.976 43.9199 93.976 43.9199C93.976 43.9199 91.6027 78.629 104.636 92.3742C104.636 92.3742 125.189 67.2462 164.197 62.9676C160.169 50.0744 153.093 38.3425 143.569 28.7661C134.044 19.1898 122.352 12.0512 109.483 7.95558C96.6138 3.85992 82.9472 2.92785 69.6413 5.23838C56.3355 7.5489 43.7827 13.0339 33.0468 21.2285C22.3109 29.4231 13.7084 40.0858 7.96834 52.3128C2.22832 64.5398 -0.480009 77.9707 0.072883 91.4672C0.625775 104.964 4.42359 118.128 11.1445 129.844C17.8653 141.561 27.3112 151.484 38.6813 158.772C31.184 180.394 42.5358 192 42.5415 192.006C42.5472 192.011 35.942 177.706 46.7734 160.294C57.6047 142.882 69.3682 133.41 71.873 123.028C75.3043 108.756 67.298 104.266 51.2855 103.471C31.51 102.493 21.9597 111.662 21.9597 111.662C21.9597 111.662 32.2878 88.1529 70.3347 97.139C70.3347 97.139 76.3851 82.6788 72.1418 56.2752C72.1418 56.2752 97.2586 95.0169 79.1187 132.923C74.4293 142.705 60.75 153.035 51.4856 165.528C62.6414 170.203 74.6735 172.418 86.7624 172.023C98.8514 171.629 110.713 168.633 121.54 163.24C136.026 175.109 152.742 178.912 152.748 178.912L152.725 178.878ZM107.295 32.4455L108.896 27.5206L110.498 32.4455H115.644L111.458 35.4943L113.06 40.4193L108.868 37.3705L104.682 40.4193L106.283 35.4943L102.091 32.4455H107.295ZM109.697 61.9551C111.483 61.954 113.229 62.4828 114.715 63.4745C116.201 64.4663 117.359 65.8765 118.044 67.5267C118.728 69.177 118.907 70.9932 118.56 72.7456C118.212 74.498 117.352 76.1079 116.09 77.3716C114.827 78.6353 113.218 79.4961 111.466 79.845C109.715 80.194 107.899 80.0155 106.248 79.332C104.598 78.6486 103.187 77.4909 102.195 76.0055C101.202 74.5201 100.673 72.7737 100.673 70.9871C100.679 68.5966 101.632 66.306 103.324 64.6173C105.015 62.9286 107.307 61.9795 109.697 61.978V61.9551ZM53.0068 26.8742L53.8074 24.4146L54.6024 26.8742H57.193L55.0999 28.3958L55.9005 30.8611L53.8074 29.3396L51.7087 30.8611L52.5093 28.3958L50.4162 26.8742H53.0068ZM57.1644 89.7087C55.4042 89.7098 53.6832 89.1888 52.2191 88.2115C50.755 87.2342 49.6136 85.8446 48.9392 84.2183C48.2649 82.5921 48.0878 80.8024 48.4305 79.0755C48.7732 77.3486 49.6203 75.7622 50.8645 74.5169C52.1087 73.2716 53.6943 72.4233 55.4205 72.0794C57.1468 71.7355 58.9363 71.9115 60.5626 72.5849C62.1889 73.2584 63.579 74.3992 64.557 75.863C65.535 77.3268 66.057 79.0478 66.057 80.8084C66.06 81.9786 65.8323 83.138 65.3868 84.2201C64.9413 85.3022 64.2869 86.2858 63.4609 87.1146C62.6349 87.9435 61.6536 88.6012 60.5732 89.0503C59.4927 89.4993 58.3344 89.7308 57.1644 89.7316V89.7087ZM63.1691 43.8856L64.7703 48.8105L60.5842 45.7675L56.3923 48.8105L57.9936 43.8856L53.8074 40.8425H58.9829L60.5842 35.9176L62.1854 40.8425H67.3609L63.1691 43.8856ZM80.2796 30.4836L72.8052 35.9176L75.6645 27.1259L68.1901 21.6976H77.4259L80.2853 12.9117L83.1447 21.6976H92.3862L84.9118 27.1259L87.7712 35.9176L80.2796 30.4836Z" fill="url(#paint0_radial_119_13490)"/>
<path d="M164.208 63.002C161.435 64.0888 117.806 81.5806 115.204 111.399C114.015 125.047 123.714 142.236 133.55 155.855C147.696 145.503 158.255 130.989 163.751 114.341C169.248 97.6938 169.408 79.7446 164.208 63.002Z" fill="url(#paint1_radial_119_13490)"/>
</g>
<path d="M241.21 69.048V80.952H210.234V69.048H241.21ZM229.818 80.952L232.25 71.864C238.821 71.864 244.282 72.76 248.634 74.552C253.071 76.344 256.399 78.8187 258.618 81.976C260.837 85.048 261.946 88.6747 261.946 92.856C261.946 100.963 258.959 106.979 252.986 110.904C247.013 114.744 238.565 116.664 227.642 116.664C225.509 116.664 223.162 116.579 220.602 116.408C218.127 116.323 215.61 116.067 213.05 115.64C210.575 115.213 208.271 114.701 206.138 114.104C201.957 112.653 199.866 110.136 199.866 106.552V43.704C199.866 42.168 200.293 40.9733 201.146 40.12C202.085 39.1813 203.279 38.4987 204.73 38.072C207.631 37.1333 211.002 36.4933 214.842 36.152C218.682 35.7253 222.65 35.512 226.746 35.512C236.986 35.512 244.922 37.304 250.554 40.888C256.186 44.472 259.002 49.9333 259.002 57.272C259.002 61.1973 257.893 64.6533 255.674 67.64C253.541 70.5413 250.298 72.8027 245.946 74.424C241.679 76.0453 236.303 76.856 229.818 76.856L228.794 69.048C233.487 69.048 236.986 68.1093 239.29 66.232C241.594 64.3547 242.746 61.7093 242.746 58.296C242.746 54.968 241.423 52.4507 238.778 50.744C236.133 48.952 232.165 48.056 226.874 48.056C224.741 48.056 222.693 48.1413 220.73 48.312C218.767 48.4827 217.103 48.696 215.738 48.952V102.84C217.359 103.267 219.322 103.565 221.626 103.736C223.93 103.907 226.191 103.992 228.41 103.992C233.701 103.992 237.839 103.053 240.826 101.176C243.898 99.2133 245.434 96.2267 245.434 92.216C245.434 88.5467 244.111 85.7733 241.466 83.896C238.821 81.9333 234.938 80.952 229.818 80.952ZM303.722 50.488H303.082C301.973 53.56 300.735 57.0587 299.37 60.984C298.09 64.9093 296.725 69.0053 295.274 73.272C293.823 77.4533 292.458 81.5067 291.178 85.432L289.386 93.368C288.874 94.9893 288.319 96.7813 287.722 98.744C287.21 100.707 286.613 102.712 285.93 104.76C285.333 106.723 284.735 108.6 284.138 110.392C283.626 112.184 283.157 113.763 282.73 115.128C281.877 115.384 280.938 115.597 279.914 115.768C278.975 116.024 277.823 116.152 276.458 116.152C273.727 116.152 271.551 115.64 269.93 114.616C268.394 113.507 267.626 111.885 267.626 109.752C267.626 108.813 267.754 107.832 268.01 106.808C268.351 105.784 268.693 104.632 269.034 103.352C269.887 100.536 271.039 97.0373 272.49 92.856C273.941 88.5893 275.519 83.9813 277.226 79.032C278.933 74.0827 280.682 69.0907 282.474 64.056C284.351 59.0213 286.101 54.328 287.722 49.976C289.343 45.5387 290.751 41.8267 291.946 38.84C292.97 38.2427 294.549 37.688 296.682 37.176C298.815 36.664 300.991 36.408 303.21 36.408C306.111 36.408 308.757 36.8347 311.146 37.688C313.621 38.5413 315.157 39.9067 315.754 41.784C317.546 46.4773 319.466 51.8533 321.514 57.912C323.562 63.9707 325.653 70.2853 327.786 76.856C329.919 83.4267 331.967 89.8267 333.93 96.056C335.893 102.285 337.642 107.917 339.178 112.952C338.325 113.891 337.13 114.659 335.594 115.256C334.143 115.853 332.437 116.152 330.474 116.152C327.658 116.152 325.61 115.64 324.33 114.616C323.135 113.507 322.197 111.843 321.514 109.624L316.266 92.856L314.602 84.664C313.237 80.312 311.871 76.0453 310.506 71.864C309.226 67.5973 307.989 63.6293 306.794 59.96C305.599 56.2907 304.575 53.1333 303.722 50.488ZM282.218 96.44L288.234 83.768H320.234L322.666 96.44H282.218ZM364.314 76.088H373.786C378.991 76.088 383.087 74.936 386.074 72.632C389.061 70.2427 390.554 66.7867 390.554 62.264C390.554 57.656 389.103 54.2427 386.202 52.024C383.386 49.8053 379.333 48.696 374.042 48.696C372.165 48.696 370.415 48.7813 368.794 48.952C367.173 49.0373 365.679 49.208 364.314 49.464V76.088ZM374.682 89.016H348.186V43.704C348.186 42.168 348.613 40.9733 349.466 40.12C350.405 39.2667 351.599 38.584 353.05 38.072C355.781 37.2187 359.023 36.5787 362.778 36.152C366.533 35.7253 370.031 35.512 373.274 35.512C384.538 35.512 392.943 37.9013 398.49 42.68C404.122 47.4587 406.938 53.944 406.938 62.136C406.938 67.5973 405.701 72.3333 403.226 76.344C400.751 80.3547 397.125 83.4693 392.346 85.688C387.567 87.9067 381.679 89.016 374.682 89.016ZM348.186 81.72H364.442V114.744C363.759 115 362.693 115.213 361.242 115.384C359.877 115.64 358.426 115.768 356.89 115.768C353.818 115.768 351.599 115.213 350.234 114.104C348.869 112.909 348.186 110.947 348.186 108.216V81.72ZM443.542 50.488H442.902C441.793 53.56 440.555 57.0587 439.19 60.984C437.91 64.9093 436.545 69.0053 435.094 73.272C433.643 77.4533 432.278 81.5067 430.998 85.432L429.206 93.368C428.694 94.9893 428.139 96.7813 427.542 98.744C427.03 100.707 426.433 102.712 425.75 104.76C425.153 106.723 424.555 108.6 423.958 110.392C423.446 112.184 422.977 113.763 422.55 115.128C421.697 115.384 420.758 115.597 419.734 115.768C418.795 116.024 417.643 116.152 416.278 116.152C413.547 116.152 411.371 115.64 409.75 114.616C408.214 113.507 407.446 111.885 407.446 109.752C407.446 108.813 407.574 107.832 407.83 106.808C408.171 105.784 408.513 104.632 408.854 103.352C409.707 100.536 410.859 97.0373 412.31 92.856C413.761 88.5893 415.339 83.9813 417.046 79.032C418.753 74.0827 420.502 69.0907 422.294 64.056C424.171 59.0213 425.921 54.328 427.542 49.976C429.163 45.5387 430.571 41.8267 431.766 38.84C432.79 38.2427 434.369 37.688 436.502 37.176C438.635 36.664 440.811 36.408 443.03 36.408C445.931 36.408 448.577 36.8347 450.966 37.688C453.441 38.5413 454.977 39.9067 455.574 41.784C457.366 46.4773 459.286 51.8533 461.334 57.912C463.382 63.9707 465.473 70.2853 467.606 76.856C469.739 83.4267 471.787 89.8267 473.75 96.056C475.713 102.285 477.462 107.917 478.998 112.952C478.145 113.891 476.95 114.659 475.414 115.256C473.963 115.853 472.257 116.152 470.294 116.152C467.478 116.152 465.43 115.64 464.15 114.616C462.955 113.507 462.017 111.843 461.334 109.624L456.086 92.856L454.422 84.664C453.057 80.312 451.691 76.0453 450.326 71.864C449.046 67.5973 447.809 63.6293 446.614 59.96C445.419 56.2907 444.395 53.1333 443.542 50.488ZM422.038 96.44L428.054 83.768H460.054L462.486 96.44H422.038Z" fill="#1D2026"/>
<path d="M205.12 143.436V145.812H195.22V143.436H205.12ZM200.98 145.812L202.132 144.012C203.764 144.012 205.12 144.288 206.2 144.84C207.28 145.368 208.084 146.076 208.612 146.964C209.164 147.852 209.44 148.848 209.44 149.952C209.44 152.136 208.648 153.756 207.064 154.812C205.504 155.868 203.272 156.396 200.368 156.396C199.72 156.396 199.072 156.372 198.424 156.324C197.776 156.3 197.14 156.24 196.516 156.144C195.892 156.048 195.292 155.928 194.716 155.784C193.708 155.496 193.204 154.944 193.204 154.128V135.696C193.204 135.312 193.3 135.012 193.492 134.796C193.708 134.58 194.008 134.424 194.392 134.328C195.208 134.088 196.072 133.932 196.984 133.86C197.92 133.764 198.916 133.716 199.972 133.716C202.684 133.716 204.796 134.208 206.308 135.192C207.82 136.152 208.576 137.628 208.576 139.62C208.576 140.628 208.324 141.564 207.82 142.428C207.34 143.268 206.548 143.952 205.444 144.48C204.364 144.984 202.912 145.236 201.088 145.236L200.764 143.436C202.348 143.436 203.548 143.112 204.364 142.464C205.18 141.792 205.588 140.868 205.588 139.692C205.588 138.492 205.108 137.604 204.148 137.028C203.212 136.428 201.82 136.128 199.972 136.128C199.156 136.128 198.436 136.164 197.812 136.236C197.188 136.284 196.612 136.356 196.084 136.452V153.588C196.66 153.708 197.32 153.804 198.064 153.876C198.832 153.948 199.6 153.984 200.368 153.984C202.36 153.984 203.872 153.648 204.904 152.976C205.936 152.304 206.452 151.272 206.452 149.88C206.452 148.632 205.984 147.648 205.048 146.928C204.136 146.184 202.78 145.812 200.98 145.812ZM213.711 142.932H216.627V155.928C216.507 155.976 216.327 156.024 216.087 156.072C215.847 156.144 215.583 156.18 215.295 156.18C214.767 156.18 214.371 156.072 214.107 155.856C213.843 155.64 213.711 155.304 213.711 154.848V142.932ZM216.627 145.344H213.711V134.184C213.831 134.136 214.011 134.088 214.251 134.04C214.515 133.968 214.791 133.932 215.079 133.932C215.607 133.932 215.991 134.04 216.231 134.256C216.495 134.448 216.627 134.784 216.627 135.264V145.344ZM222.017 136.596L224.465 136.38C224.561 137.124 224.645 138 224.717 139.008C224.789 140.016 224.837 141.06 224.861 142.14C224.909 143.196 224.933 144.204 224.933 145.164V155.928C224.813 155.976 224.621 156.024 224.357 156.072C224.117 156.144 223.865 156.18 223.601 156.18C223.073 156.18 222.677 156.084 222.413 155.892C222.149 155.676 222.017 155.34 222.017 154.884V136.596ZM239.369 153.516L236.885 153.732C236.645 151.716 236.501 149.664 236.453 147.576C236.429 145.464 236.417 143.424 236.417 141.456V134.184C236.561 134.136 236.753 134.088 236.993 134.04C237.233 133.968 237.497 133.932 237.785 133.932C238.313 133.932 238.709 134.04 238.973 134.256C239.237 134.448 239.369 134.772 239.369 135.228V153.516ZM239.369 152.436V155.604C239.153 155.772 238.877 155.916 238.541 156.036C238.205 156.156 237.833 156.216 237.425 156.216C236.849 156.216 236.357 156.108 235.949 155.892C235.541 155.652 235.169 155.232 234.833 154.632L227.993 143.112C227.633 142.464 227.237 141.756 226.805 140.988C226.373 140.196 225.965 139.452 225.581 138.756C225.197 138.036 224.897 137.448 224.681 136.992L222.017 137.676V134.544C222.209 134.352 222.473 134.196 222.809 134.076C223.169 133.956 223.553 133.896 223.961 133.896C224.537 133.896 225.029 134.016 225.437 134.256C225.845 134.472 226.217 134.88 226.553 135.48L233.429 147C233.813 147.648 234.209 148.368 234.617 149.16C235.049 149.928 235.445 150.672 235.805 151.392C236.165 152.088 236.453 152.664 236.669 153.12L239.369 152.436ZM244.738 142.932H247.654V155.928C247.534 155.976 247.354 156.024 247.114 156.072C246.874 156.144 246.61 156.18 246.322 156.18C245.794 156.18 245.398 156.072 245.134 155.856C244.87 155.64 244.738 155.304 244.738 154.848V142.932ZM247.654 145.344H244.738V134.184C244.858 134.136 245.038 134.088 245.278 134.04C245.542 133.968 245.818 133.932 246.106 133.932C246.634 133.932 247.018 134.04 247.258 134.256C247.522 134.448 247.654 134.784 247.654 135.264V145.344ZM266.695 136.38H266.551C266.191 137.388 265.759 138.588 265.255 139.98C264.775 141.372 264.271 142.812 263.743 144.3C263.239 145.764 262.759 147.132 262.303 148.404L262.123 148.944C261.979 149.376 261.799 149.916 261.583 150.564C261.367 151.212 261.139 151.896 260.899 152.616C260.659 153.312 260.431 153.972 260.215 154.596C259.999 155.196 259.831 155.688 259.711 156.072C259.543 156.144 259.363 156.192 259.171 156.216C259.003 156.264 258.787 156.288 258.523 156.288C258.139 156.288 257.791 156.192 257.479 156C257.191 155.784 257.047 155.448 257.047 154.992C257.047 154.776 257.083 154.56 257.155 154.344C257.227 154.104 257.311 153.852 257.407 153.588C257.695 152.772 258.043 151.776 258.451 150.6C258.883 149.424 259.351 148.14 259.855 146.748C260.359 145.356 260.887 143.928 261.439 142.464C261.991 141 262.531 139.572 263.059 138.18C263.587 136.788 264.079 135.516 264.535 134.364C264.727 134.268 265.015 134.172 265.399 134.076C265.783 133.98 266.179 133.932 266.587 133.932C267.067 133.932 267.523 134.004 267.955 134.148C268.411 134.292 268.699 134.532 268.819 134.868C269.395 136.26 270.007 137.844 270.655 139.62C271.327 141.372 271.999 143.208 272.671 145.128C273.343 147.024 273.979 148.872 274.579 150.672C275.203 152.472 275.755 154.104 276.235 155.568C276.067 155.784 275.839 155.952 275.551 156.072C275.287 156.216 274.987 156.288 274.651 156.288C274.195 156.288 273.847 156.192 273.607 156C273.367 155.784 273.163 155.436 272.995 154.956L271.015 149.088L270.727 148.08C270.247 146.616 269.743 145.14 269.215 143.652C268.711 142.164 268.231 140.784 267.775 139.512C267.343 138.24 266.983 137.196 266.695 136.38ZM260.719 150.168L261.655 147.756H271.699L272.275 150.168H260.719ZM295.134 136.524C295.134 136.836 295.026 137.124 294.81 137.388C294.618 137.628 294.39 137.808 294.126 137.928C293.526 137.496 292.794 137.088 291.93 136.704C291.09 136.32 289.998 136.128 288.654 136.128C287.19 136.128 285.87 136.464 284.694 137.136C283.542 137.808 282.618 138.816 281.922 140.16C281.25 141.48 280.914 143.124 280.914 145.092C280.914 148.044 281.634 150.264 283.074 151.752C284.538 153.24 286.434 153.984 288.762 153.984C290.01 153.984 291.102 153.804 292.038 153.444C292.974 153.084 293.742 152.676 294.342 152.22C294.582 152.316 294.81 152.496 295.026 152.76C295.242 153 295.35 153.288 295.35 153.624C295.35 153.864 295.278 154.104 295.134 154.344C295.014 154.56 294.798 154.776 294.486 154.992C293.934 155.376 293.178 155.712 292.218 156C291.258 156.312 290.034 156.468 288.546 156.468C286.554 156.468 284.742 156.048 283.11 155.208C281.502 154.344 280.23 153.072 279.294 151.392C278.358 149.712 277.89 147.612 277.89 145.092C277.89 142.572 278.37 140.46 279.33 138.756C280.314 137.052 281.598 135.78 283.182 134.94C284.79 134.076 286.542 133.644 288.438 133.644C289.758 133.644 290.922 133.788 291.93 134.076C292.938 134.364 293.718 134.736 294.27 135.192C294.846 135.624 295.134 136.068 295.134 136.524ZM307.461 136.38H307.317C306.957 137.388 306.525 138.588 306.021 139.98C305.541 141.372 305.037 142.812 304.509 144.3C304.005 145.764 303.525 147.132 303.069 148.404L302.889 148.944C302.745 149.376 302.565 149.916 302.349 150.564C302.133 151.212 301.905 151.896 301.665 152.616C301.425 153.312 301.197 153.972 300.981 154.596C300.765 155.196 300.597 155.688 300.477 156.072C300.309 156.144 300.129 156.192 299.937 156.216C299.769 156.264 299.553 156.288 299.289 156.288C298.905 156.288 298.557 156.192 298.245 156C297.957 155.784 297.813 155.448 297.813 154.992C297.813 154.776 297.849 154.56 297.921 154.344C297.993 154.104 298.077 153.852 298.173 153.588C298.461 152.772 298.809 151.776 299.217 150.6C299.649 149.424 300.117 148.14 300.621 146.748C301.125 145.356 301.653 143.928 302.205 142.464C302.757 141 303.297 139.572 303.825 138.18C304.353 136.788 304.845 135.516 305.301 134.364C305.493 134.268 305.781 134.172 306.165 134.076C306.549 133.98 306.945 133.932 307.353 133.932C307.833 133.932 308.289 134.004 308.721 134.148C309.177 134.292 309.465 134.532 309.585 134.868C310.161 136.26 310.773 137.844 311.421 139.62C312.093 141.372 312.765 143.208 313.437 145.128C314.109 147.024 314.745 148.872 315.345 150.672C315.969 152.472 316.521 154.104 317.001 155.568C316.833 155.784 316.605 155.952 316.317 156.072C316.053 156.216 315.753 156.288 315.417 156.288C314.961 156.288 314.613 156.192 314.373 156C314.133 155.784 313.929 155.436 313.761 154.956L311.781 149.088L311.493 148.08C311.013 146.616 310.509 145.14 309.981 143.652C309.477 142.164 308.997 140.784 308.541 139.512C308.109 138.24 307.749 137.196 307.461 136.38ZM301.485 150.168L302.421 147.756H312.465L313.041 150.168H301.485ZM335.498 144.804C335.498 142.74 335.09 141.084 334.274 139.836C333.482 138.564 332.414 137.64 331.07 137.064C329.75 136.464 328.274 136.164 326.642 136.164C325.898 136.164 325.238 136.188 324.662 136.236C324.086 136.284 323.558 136.356 323.078 136.452V153.588C323.654 153.732 324.266 153.828 324.914 153.876C325.586 153.924 326.27 153.948 326.966 153.948C329.774 153.948 331.898 153.18 333.338 151.644C334.778 150.084 335.498 147.804 335.498 144.804ZM338.486 144.804C338.486 147.42 338.006 149.592 337.046 151.32C336.11 153.024 334.778 154.296 333.05 155.136C331.346 155.976 329.33 156.396 327.002 156.396C326.258 156.396 325.394 156.36 324.41 156.288C323.45 156.24 322.538 156.084 321.674 155.82C320.666 155.508 320.162 154.956 320.162 154.164V135.66C320.162 135.276 320.258 134.988 320.45 134.796C320.666 134.58 320.966 134.412 321.35 134.292C322.094 134.052 322.934 133.896 323.87 133.824C324.806 133.752 325.742 133.716 326.678 133.716C329.03 133.716 331.082 134.136 332.834 134.976C334.61 135.792 335.99 137.016 336.974 138.648C337.982 140.28 338.486 142.332 338.486 144.804ZM342.566 142.824H345.482V155.712C345.386 155.736 345.206 155.796 344.942 155.892C344.678 155.964 344.414 156 344.15 156C343.67 156 343.286 155.856 342.998 155.568C342.71 155.256 342.566 154.872 342.566 154.416V142.824ZM345.482 147.072L342.566 147.036V135.696C342.566 135.216 342.71 134.832 342.998 134.544C343.286 134.256 343.67 134.112 344.15 134.112C344.414 134.112 344.678 134.148 344.942 134.22C345.206 134.292 345.386 134.352 345.482 134.4V147.072ZM344.15 145.992V143.544H354.986C355.058 143.64 355.13 143.796 355.202 144.012C355.274 144.228 355.31 144.456 355.31 144.696C355.31 145.08 355.214 145.392 355.022 145.632C354.83 145.872 354.554 145.992 354.194 145.992H344.15ZM344.15 156V153.552H356.282C356.354 153.648 356.426 153.804 356.498 154.02C356.57 154.212 356.606 154.44 356.606 154.704C356.606 155.088 356.51 155.4 356.318 155.64C356.126 155.88 355.85 156 355.49 156H344.15ZM344.15 136.596V134.112H356.102C356.174 134.208 356.246 134.364 356.318 134.58C356.39 134.796 356.426 135.024 356.426 135.264C356.426 135.648 356.33 135.972 356.138 136.236C355.946 136.476 355.67 136.596 355.31 136.596H344.15ZM373.208 150.312C373.04 150.432 372.812 150.54 372.524 150.636C372.26 150.732 371.96 150.78 371.624 150.78C371.24 150.78 370.892 150.72 370.58 150.6C370.292 150.48 370.088 150.288 369.968 150.024C368.696 147.336 367.58 144.876 366.62 142.644C365.684 140.412 364.928 138.564 364.352 137.1H364.208C364.136 138.9 364.052 140.58 363.956 142.14C363.884 143.7 363.8 145.212 363.704 146.676C363.608 148.116 363.512 149.604 363.416 151.14C363.344 152.652 363.248 154.272 363.128 156C362.984 156.048 362.792 156.096 362.552 156.144C362.336 156.192 362.096 156.216 361.832 156.216C361.304 156.216 360.932 156.108 360.716 155.892C360.5 155.652 360.392 155.34 360.392 154.956C360.392 154.668 360.416 154.008 360.464 152.976C360.536 151.92 360.608 150.636 360.68 149.124C360.776 147.612 360.884 146.004 361.004 144.3C361.124 142.572 361.244 140.88 361.364 139.224C361.508 137.544 361.64 136.032 361.76 134.688C361.952 134.52 362.228 134.364 362.588 134.22C362.948 134.076 363.356 134.004 363.812 134.004C364.364 134.004 364.832 134.112 365.216 134.328C365.6 134.544 365.9 134.88 366.116 135.336C366.74 136.56 367.364 137.892 367.988 139.332C368.612 140.772 369.224 142.212 369.824 143.652C370.424 145.092 371 146.448 371.552 147.72H371.696C372.752 145.176 373.796 142.728 374.828 140.376C375.884 138.024 376.772 136.02 377.492 134.364C377.708 134.244 377.984 134.16 378.32 134.112C378.656 134.04 378.968 134.004 379.256 134.004C379.808 134.004 380.24 134.1 380.552 134.292C380.888 134.46 381.104 134.748 381.2 135.156C381.296 135.564 381.404 136.26 381.524 137.244C381.644 138.228 381.764 139.392 381.884 140.736C382.004 142.056 382.112 143.448 382.208 144.912C382.328 146.376 382.436 147.816 382.532 149.232C382.628 150.648 382.712 151.932 382.784 153.084C382.88 154.212 382.94 155.112 382.964 155.784C382.748 155.928 382.52 156.036 382.28 156.108C382.04 156.18 381.764 156.216 381.452 156.216C381.092 156.216 380.768 156.132 380.48 155.964C380.216 155.772 380.06 155.436 380.012 154.956C379.868 152.628 379.724 150.336 379.58 148.08C379.46 145.8 379.352 143.712 379.256 141.816C379.16 139.92 379.076 138.372 379.004 137.172H378.86C378.332 138.492 377.612 140.196 376.7 142.284C375.788 144.348 374.624 147.024 373.208 150.312ZM395.053 148.152H392.497C391.825 147.144 391.117 146.088 390.373 144.984C389.653 143.856 388.933 142.716 388.213 141.564C387.517 140.412 386.845 139.284 386.197 138.18C385.573 137.052 385.009 136.008 384.505 135.048C384.601 134.784 384.781 134.532 385.045 134.292C385.309 134.028 385.657 133.896 386.089 133.896C386.545 133.896 386.893 134.016 387.133 134.256C387.397 134.496 387.661 134.856 387.925 135.336C388.309 136.008 388.753 136.8 389.257 137.712C389.785 138.6 390.325 139.524 390.877 140.484C391.429 141.444 391.945 142.356 392.425 143.22C392.929 144.084 393.361 144.804 393.721 145.38H393.865C394.705 143.988 395.473 142.668 396.169 141.42C396.865 140.172 397.537 138.948 398.185 137.748C398.833 136.548 399.469 135.348 400.093 134.148C400.237 134.052 400.417 133.992 400.633 133.968C400.849 133.92 401.041 133.896 401.209 133.896C401.665 133.896 402.001 134.004 402.217 134.22C402.457 134.436 402.577 134.736 402.577 135.12C402.577 135.36 402.385 135.876 402.001 136.668C401.641 137.436 401.125 138.408 400.453 139.584C399.781 140.736 398.989 142.044 398.077 143.508C397.165 144.972 396.157 146.52 395.053 148.152ZM392.317 146.748H395.233V155.928C395.113 155.976 394.921 156.024 394.657 156.072C394.417 156.144 394.165 156.18 393.901 156.18C393.373 156.18 392.977 156.072 392.713 155.856C392.449 155.64 392.317 155.304 392.317 154.848V146.748ZM431.413 145.056C431.413 147.552 430.957 149.652 430.045 151.356C429.133 153.036 427.885 154.308 426.301 155.172C424.741 156.036 422.965 156.468 420.973 156.468C419.005 156.468 417.229 156.036 415.645 155.172C414.061 154.308 412.813 153.036 411.901 151.356C410.989 149.652 410.533 147.552 410.533 145.056C410.533 142.56 411.001 140.472 411.937 138.792C412.873 137.088 414.121 135.804 415.681 134.94C417.265 134.076 419.029 133.644 420.973 133.644C422.941 133.644 424.705 134.076 426.265 134.94C427.849 135.804 429.097 137.088 430.009 138.792C430.945 140.472 431.413 142.56 431.413 145.056ZM428.425 145.056C428.425 142.2 427.741 140.004 426.373 138.468C425.029 136.908 423.229 136.128 420.973 136.128C418.741 136.128 416.941 136.908 415.573 138.468C414.229 140.004 413.557 142.2 413.557 145.056C413.557 147.912 414.229 150.12 415.573 151.68C416.917 153.216 418.717 153.984 420.973 153.984C423.253 153.984 425.065 153.216 426.409 151.68C427.753 150.12 428.425 147.912 428.425 145.056ZM438.449 147.144L435.533 147.108V135.696C435.533 135.216 435.677 134.832 435.965 134.544C436.253 134.256 436.637 134.112 437.117 134.112C437.381 134.112 437.645 134.148 437.909 134.22C438.173 134.292 438.353 134.352 438.449 134.4V147.144ZM437.117 146.568V144.084H447.809C447.881 144.204 447.953 144.372 448.025 144.588C448.097 144.78 448.133 144.996 448.133 145.236C448.133 145.62 448.037 145.944 447.845 146.208C447.653 146.448 447.377 146.568 447.017 146.568H437.117ZM437.117 136.596V134.112H449.069C449.141 134.208 449.213 134.364 449.285 134.58C449.357 134.796 449.393 135.024 449.393 135.264C449.393 135.648 449.297 135.972 449.105 136.236C448.913 136.476 448.637 136.596 448.277 136.596H437.117ZM435.533 143.184H438.485V155.964C438.365 155.988 438.173 156.024 437.909 156.072C437.669 156.144 437.417 156.18 437.153 156.18C436.625 156.18 436.217 156.072 435.929 155.856C435.665 155.64 435.533 155.316 435.533 154.884V143.184ZM196.12 178.74H199.612C201.532 178.74 203.02 178.344 204.076 177.552C205.132 176.736 205.66 175.512 205.66 173.88C205.66 172.248 205.144 171.06 204.112 170.316C203.104 169.548 201.652 169.164 199.756 169.164C199.108 169.164 198.46 169.2 197.812 169.272C197.188 169.32 196.624 169.392 196.12 169.488V178.74ZM199.792 181.188H193.204V168.696C193.204 168.312 193.3 168.024 193.492 167.832C193.708 167.616 194.008 167.448 194.392 167.328C195.088 167.112 195.928 166.956 196.912 166.86C197.92 166.764 198.892 166.716 199.828 166.716C202.876 166.716 205.096 167.364 206.488 168.66C207.904 169.932 208.612 171.66 208.612 173.844C208.612 175.332 208.288 176.628 207.64 177.732C207.016 178.836 206.056 179.688 204.76 180.288C203.464 180.888 201.808 181.188 199.792 181.188ZM193.204 179.784H196.156V188.928C196.012 188.976 195.82 189.024 195.58 189.072C195.34 189.144 195.076 189.18 194.788 189.18C194.26 189.18 193.864 189.072 193.6 188.856C193.336 188.64 193.204 188.304 193.204 187.848V179.784ZM212.55 175.824H215.466V188.712C215.37 188.736 215.19 188.796 214.926 188.892C214.662 188.964 214.398 189 214.134 189C213.654 189 213.27 188.856 212.982 188.568C212.694 188.256 212.55 187.872 212.55 187.416V175.824ZM215.466 180.072L212.55 180.036V168.696C212.55 168.216 212.694 167.832 212.982 167.544C213.27 167.256 213.654 167.112 214.134 167.112C214.398 167.112 214.662 167.148 214.926 167.22C215.19 167.292 215.37 167.352 215.466 167.4V180.072ZM214.134 178.992V176.544H224.97C225.042 176.64 225.114 176.796 225.186 177.012C225.258 177.228 225.294 177.456 225.294 177.696C225.294 178.08 225.198 178.392 225.006 178.632C224.814 178.872 224.538 178.992 224.178 178.992H214.134ZM214.134 189V186.552H226.266C226.338 186.648 226.41 186.804 226.482 187.02C226.554 187.212 226.59 187.44 226.59 187.704C226.59 188.088 226.494 188.4 226.302 188.64C226.11 188.88 225.834 189 225.474 189H214.134ZM214.134 169.596V167.112H226.086C226.158 167.208 226.23 167.364 226.302 167.58C226.374 167.796 226.41 168.024 226.41 168.264C226.41 168.648 226.314 168.972 226.122 169.236C225.93 169.476 225.654 169.596 225.294 169.596H214.134ZM233.511 178.272H237.651C239.427 178.272 240.819 177.888 241.827 177.12C242.835 176.352 243.339 175.212 243.339 173.7C243.339 172.212 242.811 171.084 241.755 170.316C240.699 169.548 239.187 169.164 237.219 169.164C236.571 169.164 235.911 169.2 235.239 169.272C234.591 169.32 234.015 169.392 233.511 169.488V178.272ZM237.651 180.72H230.595V168.696C230.595 168.312 230.691 168.024 230.883 167.832C231.099 167.616 231.399 167.448 231.783 167.328C232.479 167.112 233.331 166.956 234.339 166.86C235.371 166.764 236.367 166.716 237.327 166.716C240.327 166.716 242.571 167.328 244.059 168.552C245.547 169.776 246.291 171.492 246.291 173.7C246.291 175.116 245.967 176.352 245.319 177.408C244.671 178.464 243.711 179.28 242.439 179.856C241.167 180.432 239.571 180.72 237.651 180.72ZM237.723 179.784L239.883 178.704C240.555 179.544 241.251 180.42 241.971 181.332C242.691 182.244 243.387 183.132 244.059 183.996C244.731 184.86 245.331 185.64 245.859 186.336C246.387 187.008 246.795 187.536 247.083 187.92C246.987 188.328 246.771 188.652 246.435 188.892C246.123 189.132 245.799 189.252 245.463 189.252C245.055 189.252 244.719 189.156 244.455 188.964C244.191 188.748 243.915 188.448 243.627 188.064L237.723 179.784ZM230.595 179.928H233.547V188.928C233.403 188.976 233.211 189.024 232.971 189.072C232.731 189.144 232.467 189.18 232.179 189.18C231.651 189.18 231.255 189.072 230.991 188.856C230.727 188.64 230.595 188.304 230.595 187.848V179.928ZM253.63 180.144L250.714 180.108V168.696C250.714 168.216 250.858 167.832 251.146 167.544C251.434 167.256 251.818 167.112 252.298 167.112C252.562 167.112 252.826 167.148 253.09 167.22C253.354 167.292 253.534 167.352 253.63 167.4V180.144ZM252.298 179.568V177.084H262.99C263.062 177.204 263.134 177.372 263.206 177.588C263.278 177.78 263.314 177.996 263.314 178.236C263.314 178.62 263.218 178.944 263.026 179.208C262.834 179.448 262.558 179.568 262.198 179.568H252.298ZM252.298 169.596V167.112H264.25C264.322 167.208 264.394 167.364 264.466 167.58C264.538 167.796 264.574 168.024 264.574 168.264C264.574 168.648 264.478 168.972 264.286 169.236C264.094 169.476 263.818 169.596 263.458 169.596H252.298ZM250.714 176.184H253.666V188.964C253.546 188.988 253.354 189.024 253.09 189.072C252.85 189.144 252.598 189.18 252.334 189.18C251.806 189.18 251.398 189.072 251.11 188.856C250.846 188.64 250.714 188.316 250.714 187.884V176.184ZM287.184 178.056C287.184 180.552 286.728 182.652 285.816 184.356C284.904 186.036 283.656 187.308 282.072 188.172C280.512 189.036 278.736 189.468 276.744 189.468C274.776 189.468 273 189.036 271.416 188.172C269.832 187.308 268.584 186.036 267.672 184.356C266.76 182.652 266.304 180.552 266.304 178.056C266.304 175.56 266.772 173.472 267.708 171.792C268.644 170.088 269.892 168.804 271.452 167.94C273.036 167.076 274.8 166.644 276.744 166.644C278.712 166.644 280.476 167.076 282.036 167.94C283.62 168.804 284.868 170.088 285.78 171.792C286.716 173.472 287.184 175.56 287.184 178.056ZM284.196 178.056C284.196 175.2 283.512 173.004 282.144 171.468C280.8 169.908 279 169.128 276.744 169.128C274.512 169.128 272.712 169.908 271.344 171.468C270 173.004 269.328 175.2 269.328 178.056C269.328 180.912 270 183.12 271.344 184.68C272.688 186.216 274.488 186.984 276.744 186.984C279.024 186.984 280.836 186.216 282.18 184.68C283.524 183.12 284.196 180.912 284.196 178.056ZM294.22 178.272H298.36C300.136 178.272 301.528 177.888 302.536 177.12C303.544 176.352 304.048 175.212 304.048 173.7C304.048 172.212 303.52 171.084 302.464 170.316C301.408 169.548 299.896 169.164 297.928 169.164C297.28 169.164 296.62 169.2 295.948 169.272C295.3 169.32 294.724 169.392 294.22 169.488V178.272ZM298.36 180.72H291.304V168.696C291.304 168.312 291.4 168.024 291.592 167.832C291.808 167.616 292.108 167.448 292.492 167.328C293.188 167.112 294.04 166.956 295.048 166.86C296.08 166.764 297.076 166.716 298.036 166.716C301.036 166.716 303.28 167.328 304.768 168.552C306.256 169.776 307 171.492 307 173.7C307 175.116 306.676 176.352 306.028 177.408C305.38 178.464 304.42 179.28 303.148 179.856C301.876 180.432 300.28 180.72 298.36 180.72ZM298.432 179.784L300.592 178.704C301.264 179.544 301.96 180.42 302.68 181.332C303.4 182.244 304.096 183.132 304.768 183.996C305.44 184.86 306.04 185.64 306.568 186.336C307.096 187.008 307.504 187.536 307.792 187.92C307.696 188.328 307.48 188.652 307.144 188.892C306.832 189.132 306.508 189.252 306.172 189.252C305.764 189.252 305.428 189.156 305.164 188.964C304.9 188.748 304.624 188.448 304.336 188.064L298.432 179.784ZM291.304 179.928H294.256V188.928C294.112 188.976 293.92 189.024 293.68 189.072C293.44 189.144 293.176 189.18 292.888 189.18C292.36 189.18 291.964 189.072 291.7 188.856C291.436 188.64 291.304 188.304 291.304 187.848V179.928ZM323.739 183.312C323.571 183.432 323.343 183.54 323.055 183.636C322.791 183.732 322.491 183.78 322.155 183.78C321.771 183.78 321.423 183.72 321.111 183.6C320.823 183.48 320.619 183.288 320.499 183.024C319.227 180.336 318.111 177.876 317.151 175.644C316.215 173.412 315.459 171.564 314.883 170.1H314.739C314.667 171.9 314.583 173.58 314.487 175.14C314.415 176.7 314.331 178.212 314.235 179.676C314.139 181.116 314.043 182.604 313.947 184.14C313.875 185.652 313.779 187.272 313.659 189C313.515 189.048 313.323 189.096 313.083 189.144C312.867 189.192 312.627 189.216 312.363 189.216C311.835 189.216 311.463 189.108 311.247 188.892C311.031 188.652 310.923 188.34 310.923 187.956C310.923 187.668 310.947 187.008 310.995 185.976C311.067 184.92 311.139 183.636 311.211 182.124C311.307 180.612 311.415 179.004 311.535 177.3C311.655 175.572 311.775 173.88 311.895 172.224C312.039 170.544 312.171 169.032 312.291 167.688C312.483 167.52 312.759 167.364 313.119 167.22C313.479 167.076 313.887 167.004 314.343 167.004C314.895 167.004 315.363 167.112 315.747 167.328C316.131 167.544 316.431 167.88 316.647 168.336C317.271 169.56 317.895 170.892 318.519 172.332C319.143 173.772 319.755 175.212 320.355 176.652C320.955 178.092 321.531 179.448 322.083 180.72H322.227C323.283 178.176 324.327 175.728 325.359 173.376C326.415 171.024 327.303 169.02 328.023 167.364C328.239 167.244 328.515 167.16 328.851 167.112C329.187 167.04 329.499 167.004 329.787 167.004C330.339 167.004 330.771 167.1 331.083 167.292C331.419 167.46 331.635 167.748 331.731 168.156C331.827 168.564 331.935 169.26 332.055 170.244C332.175 171.228 332.295 172.392 332.415 173.736C332.535 175.056 332.643 176.448 332.739 177.912C332.859 179.376 332.967 180.816 333.063 182.232C333.159 183.648 333.243 184.932 333.315 186.084C333.411 187.212 333.471 188.112 333.495 188.784C333.279 188.928 333.051 189.036 332.811 189.108C332.571 189.18 332.295 189.216 331.983 189.216C331.623 189.216 331.299 189.132 331.011 188.964C330.747 188.772 330.591 188.436 330.543 187.956C330.399 185.628 330.255 183.336 330.111 181.08C329.991 178.8 329.883 176.712 329.787 174.816C329.691 172.92 329.607 171.372 329.535 170.172H329.391C328.863 171.492 328.143 173.196 327.231 175.284C326.319 177.348 325.155 180.024 323.739 183.312ZM338.328 175.932H341.244V188.928C341.124 188.976 340.944 189.024 340.704 189.072C340.464 189.144 340.2 189.18 339.912 189.18C339.384 189.18 338.988 189.072 338.724 188.856C338.46 188.64 338.328 188.304 338.328 187.848V175.932ZM341.244 178.344H338.328V167.184C338.448 167.136 338.628 167.088 338.868 167.04C339.132 166.968 339.408 166.932 339.696 166.932C340.224 166.932 340.608 167.04 340.848 167.256C341.112 167.448 341.244 167.784 341.244 168.264V178.344ZM346.634 169.596L349.082 169.38C349.178 170.124 349.262 171 349.334 172.008C349.406 173.016 349.454 174.06 349.478 175.14C349.526 176.196 349.55 177.204 349.55 178.164V188.928C349.43 188.976 349.238 189.024 348.974 189.072C348.734 189.144 348.482 189.18 348.218 189.18C347.69 189.18 347.294 189.084 347.03 188.892C346.766 188.676 346.634 188.34 346.634 187.884V169.596ZM363.986 186.516L361.502 186.732C361.262 184.716 361.118 182.664 361.07 180.576C361.046 178.464 361.034 176.424 361.034 174.456V167.184C361.178 167.136 361.37 167.088 361.61 167.04C361.85 166.968 362.114 166.932 362.402 166.932C362.93 166.932 363.326 167.04 363.59 167.256C363.854 167.448 363.986 167.772 363.986 168.228V186.516ZM363.986 185.436V188.604C363.77 188.772 363.494 188.916 363.158 189.036C362.822 189.156 362.45 189.216 362.042 189.216C361.466 189.216 360.974 189.108 360.566 188.892C360.158 188.652 359.786 188.232 359.45 187.632L352.61 176.112C352.25 175.464 351.854 174.756 351.422 173.988C350.99 173.196 350.582 172.452 350.198 171.756C349.814 171.036 349.514 170.448 349.298 169.992L346.634 170.676V167.544C346.826 167.352 347.09 167.196 347.426 167.076C347.786 166.956 348.17 166.896 348.578 166.896C349.154 166.896 349.646 167.016 350.054 167.256C350.462 167.472 350.834 167.88 351.17 168.48L358.046 180C358.43 180.648 358.826 181.368 359.234 182.16C359.666 182.928 360.062 183.672 360.422 184.392C360.782 185.088 361.07 185.664 361.286 186.12L363.986 185.436ZM386.636 178.668V186.48C386.636 186.912 386.504 187.284 386.24 187.596C386 187.884 385.628 188.148 385.124 188.388C384.524 188.7 383.696 188.952 382.64 189.144C381.584 189.36 380.516 189.468 379.436 189.468C377.204 189.468 375.224 189.06 373.496 188.244C371.792 187.428 370.46 186.18 369.5 184.5C368.54 182.82 368.06 180.684 368.06 178.092C368.06 175.524 368.552 173.4 369.536 171.72C370.544 170.016 371.876 168.744 373.532 167.904C375.188 167.064 377 166.644 378.968 166.644C380.336 166.644 381.536 166.788 382.568 167.076C383.6 167.364 384.404 167.724 384.98 168.156C385.556 168.588 385.844 169.032 385.844 169.488C385.844 169.8 385.748 170.088 385.556 170.352C385.364 170.592 385.136 170.772 384.872 170.892C384.224 170.46 383.456 170.064 382.568 169.704C381.68 169.32 380.54 169.128 379.148 169.128C377.636 169.128 376.268 169.464 375.044 170.136C373.82 170.808 372.848 171.816 372.128 173.16C371.432 174.48 371.084 176.124 371.084 178.092C371.084 180.156 371.444 181.848 372.164 183.168C372.908 184.464 373.916 185.424 375.188 186.048C376.46 186.672 377.888 186.984 379.472 186.984C380.336 186.984 381.152 186.912 381.92 186.768C382.688 186.624 383.288 186.444 383.72 186.228V179.604H378.284C378.212 179.484 378.14 179.328 378.068 179.136C377.996 178.92 377.96 178.692 377.96 178.452C377.96 178.044 378.056 177.732 378.248 177.516C378.44 177.276 378.716 177.156 379.076 177.156H385.088C385.52 177.156 385.88 177.3 386.168 177.588C386.48 177.852 386.636 178.212 386.636 178.668ZM404.883 169.38H404.739C404.379 170.388 403.947 171.588 403.443 172.98C402.963 174.372 402.459 175.812 401.931 177.3C401.427 178.764 400.947 180.132 400.491 181.404L400.311 181.944C400.167 182.376 399.987 182.916 399.771 183.564C399.555 184.212 399.327 184.896 399.087 185.616C398.847 186.312 398.619 186.972 398.403 187.596C398.187 188.196 398.019 188.688 397.899 189.072C397.731 189.144 397.551 189.192 397.359 189.216C397.191 189.264 396.975 189.288 396.711 189.288C396.327 189.288 395.979 189.192 395.667 189C395.379 188.784 395.235 188.448 395.235 187.992C395.235 187.776 395.271 187.56 395.343 187.344C395.415 187.104 395.499 186.852 395.595 186.588C395.883 185.772 396.231 184.776 396.639 183.6C397.071 182.424 397.539 181.14 398.043 179.748C398.547 178.356 399.075 176.928 399.627 175.464C400.179 174 400.719 172.572 401.247 171.18C401.775 169.788 402.267 168.516 402.723 167.364C402.915 167.268 403.203 167.172 403.587 167.076C403.971 166.98 404.367 166.932 404.775 166.932C405.255 166.932 405.711 167.004 406.143 167.148C406.599 167.292 406.887 167.532 407.007 167.868C407.583 169.26 408.195 170.844 408.843 172.62C409.515 174.372 410.187 176.208 410.859 178.128C411.531 180.024 412.167 181.872 412.767 183.672C413.391 185.472 413.943 187.104 414.423 188.568C414.255 188.784 414.027 188.952 413.739 189.072C413.475 189.216 413.175 189.288 412.839 189.288C412.383 189.288 412.035 189.192 411.795 189C411.555 188.784 411.351 188.436 411.183 187.956L409.203 182.088L408.915 181.08C408.435 179.616 407.931 178.14 407.403 176.652C406.899 175.164 406.419 173.784 405.963 172.512C405.531 171.24 405.171 170.196 404.883 169.38ZM398.907 183.168L399.843 180.756H409.887L410.463 183.168H398.907ZM420.5 178.272H424.64C426.416 178.272 427.808 177.888 428.816 177.12C429.824 176.352 430.328 175.212 430.328 173.7C430.328 172.212 429.8 171.084 428.744 170.316C427.688 169.548 426.176 169.164 424.208 169.164C423.56 169.164 422.9 169.2 422.228 169.272C421.58 169.32 421.004 169.392 420.5 169.488V178.272ZM424.64 180.72H417.584V168.696C417.584 168.312 417.68 168.024 417.872 167.832C418.088 167.616 418.388 167.448 418.772 167.328C419.468 167.112 420.32 166.956 421.328 166.86C422.36 166.764 423.356 166.716 424.316 166.716C427.316 166.716 429.56 167.328 431.048 168.552C432.536 169.776 433.28 171.492 433.28 173.7C433.28 175.116 432.956 176.352 432.308 177.408C431.66 178.464 430.7 179.28 429.428 179.856C428.156 180.432 426.56 180.72 424.64 180.72ZM424.712 179.784L426.872 178.704C427.544 179.544 428.24 180.42 428.96 181.332C429.68 182.244 430.376 183.132 431.048 183.996C431.72 184.86 432.32 185.64 432.848 186.336C433.376 187.008 433.784 187.536 434.072 187.92C433.976 188.328 433.76 188.652 433.424 188.892C433.112 189.132 432.788 189.252 432.452 189.252C432.044 189.252 431.708 189.156 431.444 188.964C431.18 188.748 430.904 188.448 430.616 188.064L424.712 179.784ZM417.584 179.928H420.536V188.928C420.392 188.976 420.2 189.024 419.96 189.072C419.72 189.144 419.456 189.18 419.168 189.18C418.64 189.18 418.244 189.072 417.98 188.856C417.716 188.64 417.584 188.304 417.584 187.848V179.928ZM443.368 169.596L443.188 167.112H451.576C451.648 167.208 451.72 167.364 451.792 167.58C451.864 167.796 451.9 168.024 451.9 168.264C451.9 168.648 451.804 168.972 451.612 169.236C451.42 169.476 451.144 169.596 450.784 169.596H443.368ZM443.44 167.112L443.62 169.596H435.196C435.124 169.476 435.052 169.308 434.98 169.092C434.908 168.876 434.872 168.648 434.872 168.408C434.872 168 434.968 167.688 435.16 167.472C435.352 167.232 435.628 167.112 435.988 167.112H443.44ZM441.928 168.624H444.844V188.928C444.724 188.976 444.532 189.024 444.268 189.072C444.028 189.144 443.776 189.18 443.512 189.18C442.984 189.18 442.588 189.072 442.324 188.856C442.06 188.64 441.928 188.304 441.928 187.848V168.624ZM460.706 187.02C462.314 187.02 463.526 186.66 464.342 185.94C465.182 185.196 465.602 184.248 465.602 183.096C465.602 182.112 465.278 181.296 464.63 180.648C464.006 180 463.01 179.484 461.642 179.1L458.51 178.164C457.502 177.852 456.626 177.456 455.882 176.976C455.138 176.472 454.562 175.86 454.154 175.14C453.77 174.396 453.578 173.532 453.578 172.548C453.578 170.7 454.25 169.26 455.594 168.228C456.938 167.172 458.726 166.644 460.958 166.644C462.254 166.644 463.406 166.788 464.414 167.076C465.446 167.34 466.25 167.688 466.826 168.12C467.426 168.552 467.726 169.008 467.726 169.488C467.726 169.8 467.642 170.088 467.474 170.352C467.306 170.592 467.09 170.784 466.826 170.928C466.226 170.448 465.41 170.028 464.378 169.668C463.37 169.308 462.266 169.128 461.066 169.128C459.674 169.128 458.57 169.44 457.754 170.064C456.938 170.664 456.53 171.492 456.53 172.548C456.53 173.388 456.818 174.072 457.394 174.6C457.994 175.128 458.954 175.584 460.274 175.968L462.47 176.616C464.366 177.144 465.854 177.912 466.934 178.92C468.038 179.928 468.59 181.32 468.59 183.096C468.59 184.992 467.894 186.528 466.502 187.704C465.134 188.88 463.202 189.468 460.706 189.468C459.242 189.468 457.958 189.312 456.854 189C455.774 188.664 454.922 188.256 454.298 187.776C453.698 187.272 453.398 186.78 453.398 186.3C453.398 185.892 453.518 185.556 453.758 185.292C454.022 185.004 454.322 184.8 454.658 184.68C455.21 185.208 455.99 185.736 456.998 186.264C458.006 186.768 459.242 187.02 460.706 187.02Z" fill="#1D2026"/>
<defs>
<radialGradient id="paint0_radial_119_13490" cx="0" cy="0" r="1" gradientUnits="userSpaceOnUse" gradientTransform="translate(117.32 28.7733) scale(250.796 250.852)">
<stop stop-color="#F1A421"/>
<stop offset="1" stop-color="#F1582E"/>
</radialGradient>
<radialGradient id="paint1_radial_119_13490" cx="0" cy="0" r="1" gradientUnits="userSpaceOnUse" gradientTransform="translate(117.32 28.7733) scale(250.796 250.852)">
<stop stop-color="#F1A421"/>
<stop offset="1" stop-color="#F1582E"/>
</radialGradient>
<clipPath id="clip0_119_13490">
<rect width="168" height="188" fill="white" transform="translate(0 4)"/>
</clipPath>
</defs>
</svg>
