<svg width="364" height="150" viewBox="0 0 364 150" fill="none" xmlns="http://www.w3.org/2000/svg">
<g clip-path="url(#clip0_97_5366)">
<path d="M120.907 139.028C118.953 138.017 117.128 136.771 115.474 135.32C103.69 126.775 76.4576 104.092 71.7492 74.1009C66.8506 43.0047 74.3977 32.1865 74.3977 32.1865C74.3977 32.1865 72.5189 59.6646 82.8367 70.5462C82.8367 70.5462 99.108 50.6531 129.989 47.2659C126.801 37.0588 121.199 27.7711 113.659 20.1898C106.118 12.6085 96.8621 6.95715 86.674 3.71475C76.4859 0.472354 65.6665 -0.26553 55.1327 1.56363C44.599 3.3928 34.6613 7.73509 26.1621 14.2225C17.6628 20.7099 10.8525 29.1512 6.30829 38.8309C1.76411 48.5106 -0.379987 59.1434 0.0577194 69.8281C0.495426 80.5129 3.50203 90.9346 8.82272 100.21C14.1434 109.485 21.6214 117.341 30.6227 123.111C24.6874 140.228 33.6742 149.416 33.6787 149.421C33.6832 149.426 28.4541 138.1 37.0289 124.316C45.6037 110.532 54.9165 103.033 56.8995 94.8136C59.6159 83.5154 53.2776 79.9606 40.601 79.3312C24.9454 78.5568 17.3848 85.8158 17.3848 85.8158C17.3848 85.8158 25.5612 67.2043 55.6816 74.3183C55.6816 74.3183 60.4716 62.8706 57.1123 41.9678C57.1123 41.9678 76.9964 72.6383 62.6356 102.648C58.9232 110.391 48.0938 118.569 40.7595 128.459C49.5912 132.16 59.1165 133.914 68.687 133.602C78.2574 133.289 87.6481 130.917 96.2195 126.648C107.687 136.044 120.921 139.056 120.925 139.056L120.907 139.028ZM84.9419 23.1026L86.2095 19.2037L87.4772 23.1026H91.5518L88.2378 25.5163L89.5055 29.4152L86.1869 27.0016L82.8729 29.4152L84.1405 25.5163L80.822 23.1026H84.9419ZM86.8434 46.4644C88.2575 46.4635 89.64 46.8821 90.8162 47.6672C91.9924 48.4524 92.9094 49.5688 93.4511 50.8752C93.9929 52.1817 94.1351 53.6195 93.8598 55.0068C93.5845 56.3942 92.904 57.6686 91.9044 58.6691C90.9048 59.6695 89.6311 60.351 88.2442 60.6272C86.8574 60.9035 85.4198 60.7622 84.1133 60.2211C82.8068 59.68 81.69 58.7636 80.9043 57.5876C80.1186 56.4117 79.6992 55.0291 79.6992 53.6147C79.704 51.7222 80.4587 49.9089 81.7978 48.572C83.137 47.2351 84.9514 46.4837 86.8434 46.4825V46.4644ZM41.9638 18.692L42.5976 16.7448L43.2269 18.692H45.2778L43.6208 19.8966L44.2546 21.8483L42.5976 20.6437L40.9361 21.8483L41.5699 19.8966L39.9129 18.692H41.9638ZM45.2551 68.436C43.8617 68.4369 42.4992 68.0244 41.3402 67.2507C40.1811 66.477 39.2775 65.3769 38.7436 64.0894C38.2097 62.802 38.0696 61.3851 38.3409 60.018C38.6122 58.6509 39.2827 57.395 40.2678 56.4091C41.2528 55.4232 42.508 54.7517 43.8746 54.4795C45.2412 54.2072 46.6579 54.3465 47.9454 54.8797C49.2329 55.4128 50.3334 56.3159 51.1076 57.4748C51.8819 58.6336 52.2952 59.9961 52.2952 61.3899C52.2976 62.3163 52.1172 63.2341 51.7646 64.0908C51.4119 64.9475 50.8938 65.7262 50.2399 66.3823C49.586 67.0385 48.8091 67.5592 47.9538 67.9147C47.0984 68.2702 46.1814 68.4535 45.2551 68.4541V68.436ZM50.0089 32.1593L51.2765 36.0583L47.9625 33.6492L44.644 36.0583L45.9116 32.1593L42.5976 29.7503H46.6948L47.9625 25.8514L49.2301 29.7503H53.3274L50.0089 32.1593ZM63.5547 21.5494L57.6374 25.8514L59.9011 18.8913L53.9839 14.5939H61.2955L63.5592 7.63832L65.8229 14.5939H73.1391L67.2218 18.8913L69.4855 25.8514L63.5547 21.5494Z" fill="url(#paint0_radial_97_5366)"/>
<path d="M129.998 47.2932C127.803 48.1536 93.2635 62.0013 91.2036 85.6076C90.2619 96.4122 97.9403 110.02 105.727 120.802C116.926 112.606 125.285 101.116 129.637 87.9368C133.988 74.7576 134.115 60.5478 129.998 47.2932Z" fill="url(#paint1_radial_97_5366)"/>
</g>
<path d="M164.42 110.676V112.392H157.27V110.676H164.42ZM161.43 112.392L162.262 111.092C163.441 111.092 164.42 111.291 165.2 111.69C165.98 112.071 166.561 112.583 166.942 113.224C167.341 113.865 167.54 114.585 167.54 115.382C167.54 116.959 166.968 118.129 165.824 118.892C164.697 119.655 163.085 120.036 160.988 120.036C160.52 120.036 160.052 120.019 159.584 119.984C159.116 119.967 158.657 119.923 158.206 119.854C157.755 119.785 157.322 119.698 156.906 119.594C156.178 119.386 155.814 118.987 155.814 118.398V105.086C155.814 104.809 155.883 104.592 156.022 104.436C156.178 104.28 156.395 104.167 156.672 104.098C157.261 103.925 157.885 103.812 158.544 103.76C159.22 103.691 159.939 103.656 160.702 103.656C162.661 103.656 164.186 104.011 165.278 104.722C166.37 105.415 166.916 106.481 166.916 107.92C166.916 108.648 166.734 109.324 166.37 109.948C166.023 110.555 165.451 111.049 164.654 111.43C163.874 111.794 162.825 111.976 161.508 111.976L161.274 110.676C162.418 110.676 163.285 110.442 163.874 109.974C164.463 109.489 164.758 108.821 164.758 107.972C164.758 107.105 164.411 106.464 163.718 106.048C163.042 105.615 162.037 105.398 160.702 105.398C160.113 105.398 159.593 105.424 159.142 105.476C158.691 105.511 158.275 105.563 157.894 105.632V118.008C158.31 118.095 158.787 118.164 159.324 118.216C159.879 118.268 160.433 118.294 160.988 118.294C162.427 118.294 163.519 118.051 164.264 117.566C165.009 117.081 165.382 116.335 165.382 115.33C165.382 114.429 165.044 113.718 164.368 113.198C163.709 112.661 162.73 112.392 161.43 112.392ZM170.624 110.312H172.73V119.698C172.644 119.733 172.514 119.767 172.34 119.802C172.167 119.854 171.976 119.88 171.768 119.88C171.387 119.88 171.101 119.802 170.91 119.646C170.72 119.49 170.624 119.247 170.624 118.918V110.312ZM172.73 112.054H170.624V103.994C170.711 103.959 170.841 103.925 171.014 103.89C171.205 103.838 171.404 103.812 171.612 103.812C171.994 103.812 172.271 103.89 172.444 104.046C172.635 104.185 172.73 104.427 172.73 104.774V112.054ZM176.623 105.736L178.391 105.58C178.46 106.117 178.521 106.75 178.573 107.478C178.625 108.206 178.66 108.96 178.677 109.74C178.712 110.503 178.729 111.231 178.729 111.924V119.698C178.642 119.733 178.504 119.767 178.313 119.802C178.14 119.854 177.958 119.88 177.767 119.88C177.386 119.88 177.1 119.811 176.909 119.672C176.718 119.516 176.623 119.273 176.623 118.944V105.736ZM189.155 117.956L187.361 118.112C187.188 116.656 187.084 115.174 187.049 113.666C187.032 112.141 187.023 110.667 187.023 109.246V103.994C187.127 103.959 187.266 103.925 187.439 103.89C187.612 103.838 187.803 103.812 188.011 103.812C188.392 103.812 188.678 103.89 188.869 104.046C189.06 104.185 189.155 104.419 189.155 104.748V117.956ZM189.155 117.176V119.464C188.999 119.585 188.8 119.689 188.557 119.776C188.314 119.863 188.046 119.906 187.751 119.906C187.335 119.906 186.98 119.828 186.685 119.672C186.39 119.499 186.122 119.195 185.879 118.762L180.939 110.442C180.679 109.974 180.393 109.463 180.081 108.908C179.769 108.336 179.474 107.799 179.197 107.296C178.92 106.776 178.703 106.351 178.547 106.022L176.623 106.516V104.254C176.762 104.115 176.952 104.003 177.195 103.916C177.455 103.829 177.732 103.786 178.027 103.786C178.443 103.786 178.798 103.873 179.093 104.046C179.388 104.202 179.656 104.497 179.899 104.93L184.865 113.25C185.142 113.718 185.428 114.238 185.723 114.81C186.035 115.365 186.321 115.902 186.581 116.422C186.841 116.925 187.049 117.341 187.205 117.67L189.155 117.176ZM193.033 110.312H195.139V119.698C195.053 119.733 194.923 119.767 194.749 119.802C194.576 119.854 194.385 119.88 194.177 119.88C193.796 119.88 193.51 119.802 193.319 119.646C193.129 119.49 193.033 119.247 193.033 118.918V110.312ZM195.139 112.054H193.033V103.994C193.12 103.959 193.25 103.925 193.423 103.89C193.614 103.838 193.813 103.812 194.021 103.812C194.403 103.812 194.68 103.89 194.853 104.046C195.044 104.185 195.139 104.427 195.139 104.774V112.054ZM208.891 105.58H208.787C208.527 106.308 208.215 107.175 207.851 108.18C207.504 109.185 207.14 110.225 206.759 111.3C206.395 112.357 206.048 113.345 205.719 114.264L205.589 114.654C205.485 114.966 205.355 115.356 205.199 115.824C205.043 116.292 204.878 116.786 204.705 117.306C204.532 117.809 204.367 118.285 204.211 118.736C204.055 119.169 203.934 119.525 203.847 119.802C203.726 119.854 203.596 119.889 203.457 119.906C203.336 119.941 203.18 119.958 202.989 119.958C202.712 119.958 202.46 119.889 202.235 119.75C202.027 119.594 201.923 119.351 201.923 119.022C201.923 118.866 201.949 118.71 202.001 118.554C202.053 118.381 202.114 118.199 202.183 118.008C202.391 117.419 202.642 116.699 202.937 115.85C203.249 115.001 203.587 114.073 203.951 113.068C204.315 112.063 204.696 111.031 205.095 109.974C205.494 108.917 205.884 107.885 206.265 106.88C206.646 105.875 207.002 104.956 207.331 104.124C207.47 104.055 207.678 103.985 207.955 103.916C208.232 103.847 208.518 103.812 208.813 103.812C209.16 103.812 209.489 103.864 209.801 103.968C210.13 104.072 210.338 104.245 210.425 104.488C210.841 105.493 211.283 106.637 211.751 107.92C212.236 109.185 212.722 110.511 213.207 111.898C213.692 113.267 214.152 114.602 214.585 115.902C215.036 117.202 215.434 118.381 215.781 119.438C215.66 119.594 215.495 119.715 215.287 119.802C215.096 119.906 214.88 119.958 214.637 119.958C214.308 119.958 214.056 119.889 213.883 119.75C213.71 119.594 213.562 119.343 213.441 118.996L212.011 114.758L211.803 114.03C211.456 112.973 211.092 111.907 210.711 110.832C210.347 109.757 210 108.761 209.671 107.842C209.359 106.923 209.099 106.169 208.891 105.58ZM204.575 115.538L205.251 113.796H212.505L212.921 115.538H204.575ZM229.43 105.684C229.43 105.909 229.352 106.117 229.196 106.308C229.057 106.481 228.893 106.611 228.702 106.698C228.269 106.386 227.74 106.091 227.116 105.814C226.509 105.537 225.721 105.398 224.75 105.398C223.693 105.398 222.739 105.641 221.89 106.126C221.058 106.611 220.391 107.339 219.888 108.31C219.403 109.263 219.16 110.451 219.16 111.872C219.16 114.004 219.68 115.607 220.72 116.682C221.777 117.757 223.147 118.294 224.828 118.294C225.729 118.294 226.518 118.164 227.194 117.904C227.87 117.644 228.425 117.349 228.858 117.02C229.031 117.089 229.196 117.219 229.352 117.41C229.508 117.583 229.586 117.791 229.586 118.034C229.586 118.207 229.534 118.381 229.43 118.554C229.343 118.71 229.187 118.866 228.962 119.022C228.563 119.299 228.017 119.542 227.324 119.75C226.631 119.975 225.747 120.088 224.672 120.088C223.233 120.088 221.925 119.785 220.746 119.178C219.585 118.554 218.666 117.635 217.99 116.422C217.314 115.209 216.976 113.692 216.976 111.872C216.976 110.052 217.323 108.527 218.016 107.296C218.727 106.065 219.654 105.147 220.798 104.54C221.959 103.916 223.225 103.604 224.594 103.604C225.547 103.604 226.388 103.708 227.116 103.916C227.844 104.124 228.407 104.393 228.806 104.722C229.222 105.034 229.43 105.355 229.43 105.684ZM238.333 105.58H238.229C237.969 106.308 237.657 107.175 237.293 108.18C236.946 109.185 236.582 110.225 236.201 111.3C235.837 112.357 235.49 113.345 235.161 114.264L235.031 114.654C234.927 114.966 234.797 115.356 234.641 115.824C234.485 116.292 234.32 116.786 234.147 117.306C233.974 117.809 233.809 118.285 233.653 118.736C233.497 119.169 233.376 119.525 233.289 119.802C233.168 119.854 233.038 119.889 232.899 119.906C232.778 119.941 232.622 119.958 232.431 119.958C232.154 119.958 231.902 119.889 231.677 119.75C231.469 119.594 231.365 119.351 231.365 119.022C231.365 118.866 231.391 118.71 231.443 118.554C231.495 118.381 231.556 118.199 231.625 118.008C231.833 117.419 232.084 116.699 232.379 115.85C232.691 115.001 233.029 114.073 233.393 113.068C233.757 112.063 234.138 111.031 234.537 109.974C234.936 108.917 235.326 107.885 235.707 106.88C236.088 105.875 236.444 104.956 236.773 104.124C236.912 104.055 237.12 103.985 237.397 103.916C237.674 103.847 237.96 103.812 238.255 103.812C238.602 103.812 238.931 103.864 239.243 103.968C239.572 104.072 239.78 104.245 239.867 104.488C240.283 105.493 240.725 106.637 241.193 107.92C241.678 109.185 242.164 110.511 242.649 111.898C243.134 113.267 243.594 114.602 244.027 115.902C244.478 117.202 244.876 118.381 245.223 119.438C245.102 119.594 244.937 119.715 244.729 119.802C244.538 119.906 244.322 119.958 244.079 119.958C243.75 119.958 243.498 119.889 243.325 119.75C243.152 119.594 243.004 119.343 242.883 118.996L241.453 114.758L241.245 114.03C240.898 112.973 240.534 111.907 240.153 110.832C239.789 109.757 239.442 108.761 239.113 107.842C238.801 106.923 238.541 106.169 238.333 105.58ZM234.017 115.538L234.693 113.796H241.947L242.363 115.538H234.017ZM258.582 111.664C258.582 110.173 258.287 108.977 257.698 108.076C257.126 107.157 256.354 106.49 255.384 106.074C254.43 105.641 253.364 105.424 252.186 105.424C251.648 105.424 251.172 105.441 250.756 105.476C250.34 105.511 249.958 105.563 249.612 105.632V118.008C250.028 118.112 250.47 118.181 250.938 118.216C251.423 118.251 251.917 118.268 252.42 118.268C254.448 118.268 255.982 117.713 257.022 116.604C258.062 115.477 258.582 113.831 258.582 111.664ZM260.74 111.664C260.74 113.553 260.393 115.122 259.7 116.37C259.024 117.601 258.062 118.519 256.814 119.126C255.583 119.733 254.127 120.036 252.446 120.036C251.908 120.036 251.284 120.01 250.574 119.958C249.88 119.923 249.222 119.811 248.598 119.62C247.87 119.395 247.506 118.996 247.506 118.424V105.06C247.506 104.783 247.575 104.575 247.714 104.436C247.87 104.28 248.086 104.159 248.364 104.072C248.901 103.899 249.508 103.786 250.184 103.734C250.86 103.682 251.536 103.656 252.212 103.656C253.91 103.656 255.392 103.959 256.658 104.566C257.94 105.155 258.937 106.039 259.648 107.218C260.376 108.397 260.74 109.879 260.74 111.664ZM263.687 110.234H265.793V119.542C265.723 119.559 265.593 119.603 265.403 119.672C265.212 119.724 265.021 119.75 264.831 119.75C264.484 119.75 264.207 119.646 263.999 119.438C263.791 119.213 263.687 118.935 263.687 118.606V110.234ZM265.793 113.302L263.687 113.276V105.086C263.687 104.739 263.791 104.462 263.999 104.254C264.207 104.046 264.484 103.942 264.831 103.942C265.021 103.942 265.212 103.968 265.403 104.02C265.593 104.072 265.723 104.115 265.793 104.15V113.302ZM264.831 112.522V110.754H272.657C272.709 110.823 272.761 110.936 272.813 111.092C272.865 111.248 272.891 111.413 272.891 111.586C272.891 111.863 272.821 112.089 272.683 112.262C272.544 112.435 272.345 112.522 272.085 112.522H264.831ZM264.831 119.75V117.982H273.593C273.645 118.051 273.697 118.164 273.749 118.32C273.801 118.459 273.827 118.623 273.827 118.814C273.827 119.091 273.757 119.317 273.619 119.49C273.48 119.663 273.281 119.75 273.021 119.75H264.831ZM264.831 105.736V103.942H273.463C273.515 104.011 273.567 104.124 273.619 104.28C273.671 104.436 273.697 104.601 273.697 104.774C273.697 105.051 273.627 105.285 273.489 105.476C273.35 105.649 273.151 105.736 272.891 105.736H264.831ZM285.817 115.642C285.695 115.729 285.531 115.807 285.323 115.876C285.132 115.945 284.915 115.98 284.673 115.98C284.395 115.98 284.144 115.937 283.919 115.85C283.711 115.763 283.563 115.625 283.477 115.434C282.558 113.493 281.752 111.716 281.059 110.104C280.383 108.492 279.837 107.157 279.421 106.1H279.317C279.265 107.4 279.204 108.613 279.135 109.74C279.083 110.867 279.022 111.959 278.953 113.016C278.883 114.056 278.814 115.131 278.745 116.24C278.693 117.332 278.623 118.502 278.537 119.75C278.433 119.785 278.294 119.819 278.121 119.854C277.965 119.889 277.791 119.906 277.601 119.906C277.219 119.906 276.951 119.828 276.795 119.672C276.639 119.499 276.561 119.273 276.561 118.996C276.561 118.788 276.578 118.311 276.613 117.566C276.665 116.803 276.717 115.876 276.769 114.784C276.838 113.692 276.916 112.531 277.003 111.3C277.089 110.052 277.176 108.83 277.263 107.634C277.367 106.421 277.462 105.329 277.549 104.358C277.687 104.237 277.887 104.124 278.147 104.02C278.407 103.916 278.701 103.864 279.031 103.864C279.429 103.864 279.767 103.942 280.045 104.098C280.322 104.254 280.539 104.497 280.695 104.826C281.145 105.71 281.596 106.672 282.047 107.712C282.497 108.752 282.939 109.792 283.373 110.832C283.806 111.872 284.222 112.851 284.621 113.77H284.725C285.487 111.933 286.241 110.165 286.987 108.466C287.749 106.767 288.391 105.32 288.911 104.124C289.067 104.037 289.266 103.977 289.509 103.942C289.751 103.89 289.977 103.864 290.185 103.864C290.583 103.864 290.895 103.933 291.121 104.072C291.363 104.193 291.519 104.401 291.589 104.696C291.658 104.991 291.736 105.493 291.823 106.204C291.909 106.915 291.996 107.755 292.083 108.726C292.169 109.679 292.247 110.685 292.317 111.742C292.403 112.799 292.481 113.839 292.551 114.862C292.62 115.885 292.681 116.812 292.733 117.644C292.802 118.459 292.845 119.109 292.863 119.594C292.707 119.698 292.542 119.776 292.369 119.828C292.195 119.88 291.996 119.906 291.771 119.906C291.511 119.906 291.277 119.845 291.069 119.724C290.878 119.585 290.765 119.343 290.731 118.996C290.627 117.315 290.523 115.659 290.419 114.03C290.332 112.383 290.254 110.875 290.185 109.506C290.115 108.137 290.055 107.019 290.003 106.152H289.899C289.517 107.105 288.997 108.336 288.339 109.844C287.68 111.335 286.839 113.267 285.817 115.642ZM301.594 114.082H299.748C299.262 113.354 298.751 112.591 298.214 111.794C297.694 110.979 297.174 110.156 296.654 109.324C296.151 108.492 295.666 107.677 295.198 106.88C294.747 106.065 294.34 105.311 293.976 104.618C294.045 104.427 294.175 104.245 294.366 104.072C294.556 103.881 294.808 103.786 295.12 103.786C295.449 103.786 295.7 103.873 295.874 104.046C296.064 104.219 296.255 104.479 296.446 104.826C296.723 105.311 297.044 105.883 297.408 106.542C297.789 107.183 298.179 107.851 298.578 108.544C298.976 109.237 299.349 109.896 299.696 110.52C300.06 111.144 300.372 111.664 300.632 112.08H300.736C301.342 111.075 301.897 110.121 302.4 109.22C302.902 108.319 303.388 107.435 303.856 106.568C304.324 105.701 304.783 104.835 305.234 103.968C305.338 103.899 305.468 103.855 305.624 103.838C305.78 103.803 305.918 103.786 306.04 103.786C306.369 103.786 306.612 103.864 306.768 104.02C306.941 104.176 307.028 104.393 307.028 104.67C307.028 104.843 306.889 105.216 306.612 105.788C306.352 106.343 305.979 107.045 305.494 107.894C305.008 108.726 304.436 109.671 303.778 110.728C303.119 111.785 302.391 112.903 301.594 114.082ZM299.618 113.068H301.724V119.698C301.637 119.733 301.498 119.767 301.308 119.802C301.134 119.854 300.952 119.88 300.762 119.88C300.38 119.88 300.094 119.802 299.904 119.646C299.713 119.49 299.618 119.247 299.618 118.918V113.068ZM327.854 111.846C327.854 113.649 327.524 115.165 326.866 116.396C326.207 117.609 325.306 118.528 324.162 119.152C323.035 119.776 321.752 120.088 320.314 120.088C318.892 120.088 317.61 119.776 316.466 119.152C315.322 118.528 314.42 117.609 313.762 116.396C313.103 115.165 312.774 113.649 312.774 111.846C312.774 110.043 313.112 108.535 313.788 107.322C314.464 106.091 315.365 105.164 316.492 104.54C317.636 103.916 318.91 103.604 320.314 103.604C321.735 103.604 323.009 103.916 324.136 104.54C325.28 105.164 326.181 106.091 326.84 107.322C327.516 108.535 327.854 110.043 327.854 111.846ZM325.696 111.846C325.696 109.783 325.202 108.197 324.214 107.088C323.243 105.961 321.943 105.398 320.314 105.398C318.702 105.398 317.402 105.961 316.414 107.088C315.443 108.197 314.958 109.783 314.958 111.846C314.958 113.909 315.443 115.503 316.414 116.63C317.384 117.739 318.684 118.294 320.314 118.294C321.96 118.294 323.269 117.739 324.24 116.63C325.21 115.503 325.696 113.909 325.696 111.846ZM332.936 113.354L330.83 113.328V105.086C330.83 104.739 330.934 104.462 331.142 104.254C331.35 104.046 331.627 103.942 331.974 103.942C332.164 103.942 332.355 103.968 332.546 104.02C332.736 104.072 332.866 104.115 332.936 104.15V113.354ZM331.974 112.938V111.144H339.696C339.748 111.231 339.8 111.352 339.852 111.508C339.904 111.647 339.93 111.803 339.93 111.976C339.93 112.253 339.86 112.487 339.722 112.678C339.583 112.851 339.384 112.938 339.124 112.938H331.974ZM331.974 105.736V103.942H340.606C340.658 104.011 340.71 104.124 340.762 104.28C340.814 104.436 340.84 104.601 340.84 104.774C340.84 105.051 340.77 105.285 340.632 105.476C340.493 105.649 340.294 105.736 340.034 105.736H331.974ZM330.83 110.494H332.962V119.724C332.875 119.741 332.736 119.767 332.546 119.802C332.372 119.854 332.19 119.88 332 119.88C331.618 119.88 331.324 119.802 331.116 119.646C330.925 119.49 330.83 119.256 330.83 118.944V110.494ZM157.92 136.34H160.442C161.829 136.34 162.903 136.054 163.666 135.482C164.429 134.893 164.81 134.009 164.81 132.83C164.81 131.651 164.437 130.793 163.692 130.256C162.964 129.701 161.915 129.424 160.546 129.424C160.078 129.424 159.61 129.45 159.142 129.502C158.691 129.537 158.284 129.589 157.92 129.658V136.34ZM160.572 138.108H155.814V129.086C155.814 128.809 155.883 128.601 156.022 128.462C156.178 128.306 156.395 128.185 156.672 128.098C157.175 127.942 157.781 127.829 158.492 127.76C159.22 127.691 159.922 127.656 160.598 127.656C162.799 127.656 164.403 128.124 165.408 129.06C166.431 129.979 166.942 131.227 166.942 132.804C166.942 133.879 166.708 134.815 166.24 135.612C165.789 136.409 165.096 137.025 164.16 137.458C163.224 137.891 162.028 138.108 160.572 138.108ZM155.814 137.094H157.946V143.698C157.842 143.733 157.703 143.767 157.53 143.802C157.357 143.854 157.166 143.88 156.958 143.88C156.577 143.88 156.291 143.802 156.1 143.646C155.909 143.49 155.814 143.247 155.814 142.918V137.094ZM169.786 134.234H171.892V143.542C171.823 143.559 171.693 143.603 171.502 143.672C171.311 143.724 171.121 143.75 170.93 143.75C170.583 143.75 170.306 143.646 170.098 143.438C169.89 143.213 169.786 142.935 169.786 142.606V134.234ZM171.892 137.302L169.786 137.276V129.086C169.786 128.739 169.89 128.462 170.098 128.254C170.306 128.046 170.583 127.942 170.93 127.942C171.121 127.942 171.311 127.968 171.502 128.02C171.693 128.072 171.823 128.115 171.892 128.15V137.302ZM170.93 136.522V134.754H178.756C178.808 134.823 178.86 134.936 178.912 135.092C178.964 135.248 178.99 135.413 178.99 135.586C178.99 135.863 178.921 136.089 178.782 136.262C178.643 136.435 178.444 136.522 178.184 136.522H170.93ZM170.93 143.75V141.982H179.692C179.744 142.051 179.796 142.164 179.848 142.32C179.9 142.459 179.926 142.623 179.926 142.814C179.926 143.091 179.857 143.317 179.718 143.49C179.579 143.663 179.38 143.75 179.12 143.75H170.93ZM170.93 129.736V127.942H179.562C179.614 128.011 179.666 128.124 179.718 128.28C179.77 128.436 179.796 128.601 179.796 128.774C179.796 129.051 179.727 129.285 179.588 129.476C179.449 129.649 179.25 129.736 178.99 129.736H170.93ZM184.924 136.002H187.914C189.197 136.002 190.202 135.725 190.93 135.17C191.658 134.615 192.022 133.792 192.022 132.7C192.022 131.625 191.641 130.811 190.878 130.256C190.116 129.701 189.024 129.424 187.602 129.424C187.134 129.424 186.658 129.45 186.172 129.502C185.704 129.537 185.288 129.589 184.924 129.658V136.002ZM187.914 137.77H182.818V129.086C182.818 128.809 182.888 128.601 183.026 128.462C183.182 128.306 183.399 128.185 183.676 128.098C184.179 127.942 184.794 127.829 185.522 127.76C186.268 127.691 186.987 127.656 187.68 127.656C189.847 127.656 191.468 128.098 192.542 128.982C193.617 129.866 194.154 131.105 194.154 132.7C194.154 133.723 193.92 134.615 193.452 135.378C192.984 136.141 192.291 136.73 191.372 137.146C190.454 137.562 189.301 137.77 187.914 137.77ZM187.966 137.094L189.526 136.314C190.012 136.921 190.514 137.553 191.034 138.212C191.554 138.871 192.057 139.512 192.542 140.136C193.028 140.76 193.461 141.323 193.842 141.826C194.224 142.311 194.518 142.693 194.726 142.97C194.657 143.265 194.501 143.499 194.258 143.672C194.033 143.845 193.799 143.932 193.556 143.932C193.262 143.932 193.019 143.863 192.828 143.724C192.638 143.568 192.438 143.351 192.23 143.074L187.966 137.094ZM182.818 137.198H184.95V143.698C184.846 143.733 184.708 143.767 184.534 143.802C184.361 143.854 184.17 143.88 183.962 143.88C183.581 143.88 183.295 143.802 183.104 143.646C182.914 143.49 182.818 143.247 182.818 142.918V137.198ZM199.455 137.354L197.349 137.328V129.086C197.349 128.739 197.453 128.462 197.661 128.254C197.869 128.046 198.146 127.942 198.493 127.942C198.684 127.942 198.874 127.968 199.065 128.02C199.256 128.072 199.386 128.115 199.455 128.15V137.354ZM198.493 136.938V135.144H206.215C206.267 135.231 206.319 135.352 206.371 135.508C206.423 135.647 206.449 135.803 206.449 135.976C206.449 136.253 206.38 136.487 206.241 136.678C206.102 136.851 205.903 136.938 205.643 136.938H198.493ZM198.493 129.736V127.942H207.125C207.177 128.011 207.229 128.124 207.281 128.28C207.333 128.436 207.359 128.601 207.359 128.774C207.359 129.051 207.29 129.285 207.151 129.476C207.012 129.649 206.813 129.736 206.553 129.736H198.493ZM197.349 134.494H199.481V143.724C199.394 143.741 199.256 143.767 199.065 143.802C198.892 143.854 198.71 143.88 198.519 143.88C198.138 143.88 197.843 143.802 197.635 143.646C197.444 143.49 197.349 143.256 197.349 142.944V134.494ZM223.688 135.846C223.688 137.649 223.359 139.165 222.7 140.396C222.042 141.609 221.14 142.528 219.996 143.152C218.87 143.776 217.587 144.088 216.148 144.088C214.727 144.088 213.444 143.776 212.3 143.152C211.156 142.528 210.255 141.609 209.596 140.396C208.938 139.165 208.608 137.649 208.608 135.846C208.608 134.043 208.946 132.535 209.622 131.322C210.298 130.091 211.2 129.164 212.326 128.54C213.47 127.916 214.744 127.604 216.148 127.604C217.57 127.604 218.844 127.916 219.97 128.54C221.114 129.164 222.016 130.091 222.674 131.322C223.35 132.535 223.688 134.043 223.688 135.846ZM221.53 135.846C221.53 133.783 221.036 132.197 220.048 131.088C219.078 129.961 217.778 129.398 216.148 129.398C214.536 129.398 213.236 129.961 212.248 131.088C211.278 132.197 210.792 133.783 210.792 135.846C210.792 137.909 211.278 139.503 212.248 140.63C213.219 141.739 214.519 142.294 216.148 142.294C217.795 142.294 219.104 141.739 220.074 140.63C221.045 139.503 221.53 137.909 221.53 135.846ZM228.77 136.002H231.76C233.043 136.002 234.048 135.725 234.776 135.17C235.504 134.615 235.868 133.792 235.868 132.7C235.868 131.625 235.487 130.811 234.724 130.256C233.961 129.701 232.869 129.424 231.448 129.424C230.98 129.424 230.503 129.45 230.018 129.502C229.55 129.537 229.134 129.589 228.77 129.658V136.002ZM231.76 137.77H226.664V129.086C226.664 128.809 226.733 128.601 226.872 128.462C227.028 128.306 227.245 128.185 227.522 128.098C228.025 127.942 228.64 127.829 229.368 127.76C230.113 127.691 230.833 127.656 231.526 127.656C233.693 127.656 235.313 128.098 236.388 128.982C237.463 129.866 238 131.105 238 132.7C238 133.723 237.766 134.615 237.298 135.378C236.83 136.141 236.137 136.73 235.218 137.146C234.299 137.562 233.147 137.77 231.76 137.77ZM231.812 137.094L233.372 136.314C233.857 136.921 234.36 137.553 234.88 138.212C235.4 138.871 235.903 139.512 236.388 140.136C236.873 140.76 237.307 141.323 237.688 141.826C238.069 142.311 238.364 142.693 238.572 142.97C238.503 143.265 238.347 143.499 238.104 143.672C237.879 143.845 237.645 143.932 237.402 143.932C237.107 143.932 236.865 143.863 236.674 143.724C236.483 143.568 236.284 143.351 236.076 143.074L231.812 137.094ZM226.664 137.198H228.796V143.698C228.692 143.733 228.553 143.767 228.38 143.802C228.207 143.854 228.016 143.88 227.808 143.88C227.427 143.88 227.141 143.802 226.95 143.646C226.759 143.49 226.664 143.247 226.664 142.918V137.198ZM250.089 139.642C249.968 139.729 249.803 139.807 249.595 139.876C249.404 139.945 249.188 139.98 248.945 139.98C248.668 139.98 248.416 139.937 248.191 139.85C247.983 139.763 247.836 139.625 247.749 139.434C246.83 137.493 246.024 135.716 245.331 134.104C244.655 132.492 244.109 131.157 243.693 130.1H243.589C243.537 131.4 243.476 132.613 243.407 133.74C243.355 134.867 243.294 135.959 243.225 137.016C243.156 138.056 243.086 139.131 243.017 140.24C242.965 141.332 242.896 142.502 242.809 143.75C242.705 143.785 242.566 143.819 242.393 143.854C242.237 143.889 242.064 143.906 241.873 143.906C241.492 143.906 241.223 143.828 241.067 143.672C240.911 143.499 240.833 143.273 240.833 142.996C240.833 142.788 240.85 142.311 240.885 141.566C240.937 140.803 240.989 139.876 241.041 138.784C241.11 137.692 241.188 136.531 241.275 135.3C241.362 134.052 241.448 132.83 241.535 131.634C241.639 130.421 241.734 129.329 241.821 128.358C241.96 128.237 242.159 128.124 242.419 128.02C242.679 127.916 242.974 127.864 243.303 127.864C243.702 127.864 244.04 127.942 244.317 128.098C244.594 128.254 244.811 128.497 244.967 128.826C245.418 129.71 245.868 130.672 246.319 131.712C246.77 132.752 247.212 133.792 247.645 134.832C248.078 135.872 248.494 136.851 248.893 137.77H248.997C249.76 135.933 250.514 134.165 251.259 132.466C252.022 130.767 252.663 129.32 253.183 128.124C253.339 128.037 253.538 127.977 253.781 127.942C254.024 127.89 254.249 127.864 254.457 127.864C254.856 127.864 255.168 127.933 255.393 128.072C255.636 128.193 255.792 128.401 255.861 128.696C255.93 128.991 256.008 129.493 256.095 130.204C256.182 130.915 256.268 131.755 256.355 132.726C256.442 133.679 256.52 134.685 256.589 135.742C256.676 136.799 256.754 137.839 256.823 138.862C256.892 139.885 256.953 140.812 257.005 141.644C257.074 142.459 257.118 143.109 257.135 143.594C256.979 143.698 256.814 143.776 256.641 143.828C256.468 143.88 256.268 143.906 256.043 143.906C255.783 143.906 255.549 143.845 255.341 143.724C255.15 143.585 255.038 143.343 255.003 142.996C254.899 141.315 254.795 139.659 254.691 138.03C254.604 136.383 254.526 134.875 254.457 133.506C254.388 132.137 254.327 131.019 254.275 130.152H254.171C253.79 131.105 253.27 132.336 252.611 133.844C251.952 135.335 251.112 137.267 250.089 139.642ZM260.626 134.312H262.732V143.698C262.645 143.733 262.515 143.767 262.342 143.802C262.169 143.854 261.978 143.88 261.77 143.88C261.389 143.88 261.103 143.802 260.912 143.646C260.721 143.49 260.626 143.247 260.626 142.918V134.312ZM262.732 136.054H260.626V127.994C260.713 127.959 260.843 127.925 261.016 127.89C261.207 127.838 261.406 127.812 261.614 127.812C261.995 127.812 262.273 127.89 262.446 128.046C262.637 128.185 262.732 128.427 262.732 128.774V136.054ZM266.625 129.736L268.393 129.58C268.462 130.117 268.523 130.75 268.575 131.478C268.627 132.206 268.661 132.96 268.679 133.74C268.713 134.503 268.731 135.231 268.731 135.924V143.698C268.644 143.733 268.505 143.767 268.315 143.802C268.141 143.854 267.959 143.88 267.769 143.88C267.387 143.88 267.101 143.811 266.911 143.672C266.72 143.516 266.625 143.273 266.625 142.944V129.736ZM279.157 141.956L277.363 142.112C277.189 140.656 277.085 139.174 277.051 137.666C277.033 136.141 277.025 134.667 277.025 133.246V127.994C277.129 127.959 277.267 127.925 277.441 127.89C277.614 127.838 277.805 127.812 278.013 127.812C278.394 127.812 278.68 127.89 278.871 128.046C279.061 128.185 279.157 128.419 279.157 128.748V141.956ZM279.157 141.176V143.464C279.001 143.585 278.801 143.689 278.559 143.776C278.316 143.863 278.047 143.906 277.753 143.906C277.337 143.906 276.981 143.828 276.687 143.672C276.392 143.499 276.123 143.195 275.881 142.762L270.941 134.442C270.681 133.974 270.395 133.463 270.083 132.908C269.771 132.336 269.476 131.799 269.199 131.296C268.921 130.776 268.705 130.351 268.549 130.022L266.625 130.516V128.254C266.763 128.115 266.954 128.003 267.197 127.916C267.457 127.829 267.734 127.786 268.029 127.786C268.445 127.786 268.8 127.873 269.095 128.046C269.389 128.202 269.658 128.497 269.901 128.93L274.867 137.25C275.144 137.718 275.43 138.238 275.725 138.81C276.037 139.365 276.323 139.902 276.583 140.422C276.843 140.925 277.051 141.341 277.207 141.67L279.157 141.176ZM295.515 136.288V141.93C295.515 142.242 295.42 142.511 295.229 142.736C295.056 142.944 294.787 143.135 294.423 143.308C293.99 143.533 293.392 143.715 292.629 143.854C291.866 144.01 291.095 144.088 290.315 144.088C288.703 144.088 287.273 143.793 286.025 143.204C284.794 142.615 283.832 141.713 283.139 140.5C282.446 139.287 282.099 137.744 282.099 135.872C282.099 134.017 282.454 132.483 283.165 131.27C283.893 130.039 284.855 129.121 286.051 128.514C287.247 127.907 288.556 127.604 289.977 127.604C290.965 127.604 291.832 127.708 292.577 127.916C293.322 128.124 293.903 128.384 294.319 128.696C294.735 129.008 294.943 129.329 294.943 129.658C294.943 129.883 294.874 130.091 294.735 130.282C294.596 130.455 294.432 130.585 294.241 130.672C293.773 130.36 293.218 130.074 292.577 129.814C291.936 129.537 291.112 129.398 290.107 129.398C289.015 129.398 288.027 129.641 287.143 130.126C286.259 130.611 285.557 131.339 285.037 132.31C284.534 133.263 284.283 134.451 284.283 135.872C284.283 137.363 284.543 138.585 285.063 139.538C285.6 140.474 286.328 141.167 287.247 141.618C288.166 142.069 289.197 142.294 290.341 142.294C290.965 142.294 291.554 142.242 292.109 142.138C292.664 142.034 293.097 141.904 293.409 141.748V136.964H289.483C289.431 136.877 289.379 136.765 289.327 136.626C289.275 136.47 289.249 136.305 289.249 136.132C289.249 135.837 289.318 135.612 289.457 135.456C289.596 135.283 289.795 135.196 290.055 135.196H294.397C294.709 135.196 294.969 135.3 295.177 135.508C295.402 135.699 295.515 135.959 295.515 136.288ZM308.693 129.58H308.589C308.329 130.308 308.017 131.175 307.653 132.18C307.307 133.185 306.943 134.225 306.561 135.3C306.197 136.357 305.851 137.345 305.521 138.264L305.391 138.654C305.287 138.966 305.157 139.356 305.001 139.824C304.845 140.292 304.681 140.786 304.507 141.306C304.334 141.809 304.169 142.285 304.013 142.736C303.857 143.169 303.736 143.525 303.649 143.802C303.528 143.854 303.398 143.889 303.259 143.906C303.138 143.941 302.982 143.958 302.791 143.958C302.514 143.958 302.263 143.889 302.037 143.75C301.829 143.594 301.725 143.351 301.725 143.022C301.725 142.866 301.751 142.71 301.803 142.554C301.855 142.381 301.916 142.199 301.985 142.008C302.193 141.419 302.445 140.699 302.739 139.85C303.051 139.001 303.389 138.073 303.753 137.068C304.117 136.063 304.499 135.031 304.897 133.974C305.296 132.917 305.686 131.885 306.067 130.88C306.449 129.875 306.804 128.956 307.133 128.124C307.272 128.055 307.48 127.985 307.757 127.916C308.035 127.847 308.321 127.812 308.615 127.812C308.962 127.812 309.291 127.864 309.603 127.968C309.933 128.072 310.141 128.245 310.227 128.488C310.643 129.493 311.085 130.637 311.553 131.92C312.039 133.185 312.524 134.511 313.009 135.898C313.495 137.267 313.954 138.602 314.387 139.902C314.838 141.202 315.237 142.381 315.583 143.438C315.462 143.594 315.297 143.715 315.089 143.802C314.899 143.906 314.682 143.958 314.439 143.958C314.11 143.958 313.859 143.889 313.685 143.75C313.512 143.594 313.365 143.343 313.243 142.996L311.813 138.758L311.605 138.03C311.259 136.973 310.895 135.907 310.513 134.832C310.149 133.757 309.803 132.761 309.473 131.842C309.161 130.923 308.901 130.169 308.693 129.58ZM304.377 139.538L305.053 137.796H312.307L312.723 139.538H304.377ZM319.972 136.002H322.962C324.245 136.002 325.25 135.725 325.978 135.17C326.706 134.615 327.07 133.792 327.07 132.7C327.07 131.625 326.689 130.811 325.926 130.256C325.163 129.701 324.071 129.424 322.65 129.424C322.182 129.424 321.705 129.45 321.22 129.502C320.752 129.537 320.336 129.589 319.972 129.658V136.002ZM322.962 137.77H317.866V129.086C317.866 128.809 317.935 128.601 318.074 128.462C318.23 128.306 318.447 128.185 318.724 128.098C319.227 127.942 319.842 127.829 320.57 127.76C321.315 127.691 322.035 127.656 322.728 127.656C324.895 127.656 326.515 128.098 327.59 128.982C328.665 129.866 329.202 131.105 329.202 132.7C329.202 133.723 328.968 134.615 328.5 135.378C328.032 136.141 327.339 136.73 326.42 137.146C325.501 137.562 324.349 137.77 322.962 137.77ZM323.014 137.094L324.574 136.314C325.059 136.921 325.562 137.553 326.082 138.212C326.602 138.871 327.105 139.512 327.59 140.136C328.075 140.76 328.509 141.323 328.89 141.826C329.271 142.311 329.566 142.693 329.774 142.97C329.705 143.265 329.549 143.499 329.306 143.672C329.081 143.845 328.847 143.932 328.604 143.932C328.309 143.932 328.067 143.863 327.876 143.724C327.685 143.568 327.486 143.351 327.278 143.074L323.014 137.094ZM317.866 137.198H319.998V143.698C319.894 143.733 319.755 143.767 319.582 143.802C319.409 143.854 319.218 143.88 319.01 143.88C318.629 143.88 318.343 143.802 318.152 143.646C317.961 143.49 317.866 143.247 317.866 142.918V137.198ZM336.488 129.736L336.358 127.942H342.416C342.468 128.011 342.52 128.124 342.572 128.28C342.624 128.436 342.65 128.601 342.65 128.774C342.65 129.051 342.58 129.285 342.442 129.476C342.303 129.649 342.104 129.736 341.844 129.736H336.488ZM336.54 127.942L336.67 129.736H330.586C330.534 129.649 330.482 129.528 330.43 129.372C330.378 129.216 330.352 129.051 330.352 128.878C330.352 128.583 330.421 128.358 330.56 128.202C330.698 128.029 330.898 127.942 331.158 127.942H336.54ZM335.448 129.034H337.554V143.698C337.467 143.733 337.328 143.767 337.138 143.802C336.964 143.854 336.782 143.88 336.592 143.88C336.21 143.88 335.924 143.802 335.734 143.646C335.543 143.49 335.448 143.247 335.448 142.918V129.034ZM349.01 142.32C350.171 142.32 351.047 142.06 351.636 141.54C352.243 141.003 352.546 140.318 352.546 139.486C352.546 138.775 352.312 138.186 351.844 137.718C351.393 137.25 350.674 136.877 349.686 136.6L347.424 135.924C346.696 135.699 346.063 135.413 345.526 135.066C344.989 134.702 344.573 134.26 344.278 133.74C344.001 133.203 343.862 132.579 343.862 131.868C343.862 130.533 344.347 129.493 345.318 128.748C346.289 127.985 347.58 127.604 349.192 127.604C350.128 127.604 350.96 127.708 351.688 127.916C352.433 128.107 353.014 128.358 353.43 128.67C353.863 128.982 354.08 129.311 354.08 129.658C354.08 129.883 354.019 130.091 353.898 130.282C353.777 130.455 353.621 130.594 353.43 130.698C352.997 130.351 352.407 130.048 351.662 129.788C350.934 129.528 350.137 129.398 349.27 129.398C348.265 129.398 347.467 129.623 346.878 130.074C346.289 130.507 345.994 131.105 345.994 131.868C345.994 132.475 346.202 132.969 346.618 133.35C347.051 133.731 347.745 134.061 348.698 134.338L350.284 134.806C351.653 135.187 352.728 135.742 353.508 136.47C354.305 137.198 354.704 138.203 354.704 139.486C354.704 140.855 354.201 141.965 353.196 142.814C352.208 143.663 350.813 144.088 349.01 144.088C347.953 144.088 347.025 143.975 346.228 143.75C345.448 143.507 344.833 143.213 344.382 142.866C343.949 142.502 343.732 142.147 343.732 141.8C343.732 141.505 343.819 141.263 343.992 141.072C344.183 140.864 344.399 140.717 344.642 140.63C345.041 141.011 345.604 141.393 346.332 141.774C347.06 142.138 347.953 142.32 349.01 142.32Z" fill="white"/>
<path d="M183.408 52.786V61.714H160.176V52.786H183.408ZM174.864 61.714L176.688 54.898C181.616 54.898 185.712 55.57 188.976 56.914C192.304 58.258 194.8 60.114 196.464 62.482C198.128 64.786 198.96 67.506 198.96 70.642C198.96 76.722 196.72 81.234 192.24 84.178C187.76 87.058 181.424 88.498 173.231 88.498C171.632 88.498 169.872 88.434 167.952 88.306C166.096 88.242 164.208 88.05 162.288 87.73C160.432 87.41 158.704 87.026 157.103 86.578C153.968 85.49 152.4 83.602 152.4 80.914V33.778C152.4 32.626 152.72 31.73 153.36 31.09C154.064 30.386 154.96 29.874 156.047 29.554C158.224 28.85 160.752 28.37 163.632 28.114C166.512 27.794 169.488 27.634 172.559 27.634C180.24 27.634 186.192 28.978 190.416 31.666C194.64 34.354 196.752 38.45 196.752 43.954C196.752 46.898 195.92 49.49 194.256 51.73C192.656 53.906 190.224 55.602 186.96 56.818C183.76 58.034 179.728 58.642 174.864 58.642L174.095 52.786C177.616 52.786 180.24 52.082 181.968 50.674C183.696 49.266 184.56 47.282 184.56 44.722C184.56 42.226 183.568 40.338 181.584 39.058C179.6 37.714 176.624 37.042 172.656 37.042C171.056 37.042 169.52 37.106 168.048 37.234C166.576 37.362 165.328 37.522 164.304 37.714V78.13C165.52 78.45 166.992 78.674 168.72 78.802C170.448 78.93 172.144 78.994 173.808 78.994C177.776 78.994 180.88 78.29 183.12 76.882C185.424 75.41 186.576 73.17 186.576 70.162C186.576 67.41 185.584 65.33 183.6 63.922C181.616 62.45 178.704 61.714 174.864 61.714ZM230.292 38.866H229.812C228.979 41.17 228.051 43.794 227.027 46.738C226.068 49.682 225.044 52.754 223.956 55.954C222.867 59.09 221.843 62.13 220.883 65.074L219.539 71.026C219.155 72.242 218.74 73.586 218.292 75.058C217.907 76.53 217.459 78.034 216.947 79.57C216.499 81.042 216.051 82.45 215.603 83.794C215.219 85.138 214.867 86.322 214.547 87.346C213.907 87.538 213.203 87.698 212.435 87.826C211.731 88.018 210.867 88.114 209.843 88.114C207.795 88.114 206.163 87.73 204.947 86.962C203.795 86.13 203.219 84.914 203.219 83.314C203.219 82.61 203.315 81.874 203.507 81.106C203.763 80.338 204.019 79.474 204.275 78.514C204.915 76.402 205.779 73.778 206.867 70.642C207.955 67.442 209.139 63.986 210.419 60.274C211.699 56.562 213.011 52.818 214.355 49.042C215.763 45.266 217.075 41.746 218.292 38.482C219.507 35.154 220.563 32.37 221.459 30.13C222.227 29.682 223.411 29.266 225.011 28.882C226.611 28.498 228.243 28.306 229.907 28.306C232.083 28.306 234.068 28.626 235.859 29.266C237.716 29.906 238.868 30.93 239.316 32.338C240.66 35.858 242.1 39.89 243.635 44.434C245.172 48.978 246.74 53.714 248.339 58.642C249.939 63.57 251.476 68.37 252.948 73.042C254.42 77.714 255.732 81.938 256.884 85.714C256.244 86.418 255.348 86.994 254.196 87.442C253.108 87.89 251.827 88.114 250.355 88.114C248.243 88.114 246.708 87.73 245.748 86.962C244.852 86.13 244.148 84.882 243.635 83.218L239.699 70.642L238.452 64.498C237.428 61.234 236.404 58.034 235.38 54.898C234.419 51.698 233.491 48.722 232.595 45.97C231.699 43.218 230.931 40.85 230.292 38.866ZM214.163 73.33L218.675 63.826H242.676L244.5 73.33H214.163ZM275.735 58.066H282.839C286.743 58.066 289.816 57.202 292.056 55.474C294.295 53.682 295.415 51.09 295.415 47.698C295.415 44.242 294.327 41.682 292.151 40.018C290.039 38.354 286.999 37.522 283.031 37.522C281.623 37.522 280.311 37.586 279.095 37.714C277.879 37.778 276.759 37.906 275.735 38.098V58.066ZM283.511 67.762H263.639V33.778C263.639 32.626 263.959 31.73 264.599 31.09C265.303 30.45 266.199 29.938 267.287 29.554C269.335 28.914 271.767 28.434 274.583 28.114C277.399 27.794 280.023 27.634 282.455 27.634C290.903 27.634 297.208 29.426 301.368 33.01C305.591 36.594 307.703 41.458 307.703 47.602C307.703 51.698 306.775 55.25 304.92 58.258C303.063 61.266 300.343 63.602 296.759 65.266C293.175 66.93 288.759 67.762 283.511 67.762ZM263.639 62.29H275.831V87.058C275.319 87.25 274.519 87.41 273.431 87.538C272.407 87.73 271.319 87.826 270.167 87.826C267.863 87.826 266.199 87.41 265.175 86.578C264.151 85.682 263.639 84.21 263.639 82.162V62.29ZM335.156 38.866H334.676C333.844 41.17 332.916 43.794 331.892 46.738C330.932 49.682 329.908 52.754 328.82 55.954C327.732 59.09 326.708 62.13 325.748 65.074L324.404 71.026C324.02 72.242 323.604 73.586 323.156 75.058C322.772 76.53 322.324 78.034 321.812 79.57C321.364 81.042 320.916 82.45 320.468 83.794C320.084 85.138 319.732 86.322 319.412 87.346C318.772 87.538 318.068 87.698 317.3 87.826C316.596 88.018 315.732 88.114 314.708 88.114C312.66 88.114 311.028 87.73 309.812 86.962C308.66 86.13 308.084 84.914 308.084 83.314C308.084 82.61 308.18 81.874 308.372 81.106C308.628 80.338 308.884 79.474 309.14 78.514C309.78 76.402 310.644 73.778 311.732 70.642C312.82 67.442 314.004 63.986 315.284 60.274C316.564 56.562 317.876 52.818 319.22 49.042C320.628 45.266 321.94 41.746 323.156 38.482C324.372 35.154 325.428 32.37 326.324 30.13C327.092 29.682 328.276 29.266 329.876 28.882C331.476 28.498 333.108 28.306 334.772 28.306C336.948 28.306 338.932 28.626 340.724 29.266C342.58 29.906 343.732 30.93 344.18 32.338C345.524 35.858 346.964 39.89 348.5 44.434C350.036 48.978 351.604 53.714 353.204 58.642C354.804 63.57 356.34 68.37 357.812 73.042C359.284 77.714 360.596 81.938 361.748 85.714C361.108 86.418 360.212 86.994 359.06 87.442C357.972 87.89 356.692 88.114 355.22 88.114C353.108 88.114 351.572 87.73 350.612 86.962C349.716 86.13 349.012 84.882 348.5 83.218L344.564 70.642L343.316 64.498C342.292 61.234 341.268 58.034 340.244 54.898C339.284 51.698 338.356 48.722 337.46 45.97C336.564 43.218 335.796 40.85 335.156 38.866ZM319.028 73.33L323.54 63.826H347.54L349.364 73.33H319.028Z" fill="white"/>
<defs>
<radialGradient id="paint0_radial_97_5366" cx="0" cy="0" r="1" gradientUnits="userSpaceOnUse" gradientTransform="translate(92.8784 20.1954) scale(198.547 198.591)">
<stop stop-color="#F1A421"/>
<stop offset="1" stop-color="#F1582E"/>
</radialGradient>
<radialGradient id="paint1_radial_97_5366" cx="0" cy="0" r="1" gradientUnits="userSpaceOnUse" gradientTransform="translate(92.8787 20.1956) scale(198.547 198.591)">
<stop stop-color="#F1A421"/>
<stop offset="1" stop-color="#F1582E"/>
</radialGradient>
<clipPath id="clip0_97_5366">
<rect width="133" height="148.833" fill="white" transform="translate(0 0.583252)"/>
</clipPath>
</defs>
</svg>
