<svg width="228" height="160" viewBox="0 0 228 160" fill="none" xmlns="http://www.w3.org/2000/svg">
<rect width="228" height="160" fill="#F5F7FA"/>
<path opacity="0.2" d="M67.4766 99.3749L91.8615 74.99C92.2213 74.6302 92.6485 74.3448 93.1186 74.15C93.5887 73.9553 94.0926 73.8551 94.6015 73.8551C95.1104 73.8551 95.6143 73.9553 96.0844 74.15C96.5545 74.3448 96.9817 74.6302 97.3415 74.99L118.986 96.635C119.346 96.9948 119.773 97.2802 120.244 97.4749C120.714 97.6697 121.218 97.7699 121.726 97.7699C122.235 97.7699 122.739 97.6697 123.209 97.4749C123.68 97.2802 124.107 96.9948 124.467 96.635L134.486 86.615C134.846 86.2552 135.273 85.9698 135.744 85.775C136.214 85.5803 136.718 85.4801 137.226 85.4801C137.735 85.4801 138.239 85.5803 138.709 85.775C139.18 85.9698 139.607 86.2552 139.967 86.615L160.476 107.125L160.477 45.125C160.477 44.0973 160.068 43.1117 159.342 42.385C158.615 41.6583 157.629 41.25 156.602 41.25H71.3516C70.3238 41.25 69.3382 41.6583 68.6115 42.385C67.8848 43.1117 67.4766 44.0973 67.4766 45.125V99.3749Z" fill="#B7BAC7"/>
<path d="M156.602 41.25H71.3516C69.2115 41.25 67.4766 42.9849 67.4766 45.125V114.875C67.4766 117.015 69.2115 118.75 71.3516 118.75H156.602C158.742 118.75 160.477 117.015 160.477 114.875V45.125C160.477 42.9849 158.742 41.25 156.602 41.25Z" stroke="#B7BAC7" stroke-width="6" stroke-linecap="round" stroke-linejoin="round"/>
<path d="M67.4766 99.3753L91.8615 74.9904C92.2213 74.6306 92.6485 74.3452 93.1186 74.1504C93.5887 73.9557 94.0926 73.8555 94.6015 73.8555C95.1104 73.8555 95.6143 73.9557 96.0844 74.1504C96.5545 74.3452 96.9817 74.6306 97.3415 74.9904L118.986 96.6354C119.346 96.9952 119.773 97.2806 120.244 97.4753C120.714 97.6701 121.218 97.7703 121.726 97.7703C122.235 97.7703 122.739 97.6701 123.209 97.4753C123.68 97.2806 124.107 96.9952 124.467 96.6354L134.486 86.6154C134.846 86.2556 135.273 85.9702 135.744 85.7754C136.214 85.5807 136.718 85.4805 137.226 85.4805C137.735 85.4805 138.239 85.5807 138.709 85.7754C139.18 85.9702 139.607 86.2556 139.967 86.6154L160.476 107.125" stroke="#B7BAC7" stroke-width="6" stroke-linecap="round" stroke-linejoin="round"/>
<path d="M127.539 72.25C130.749 72.25 133.352 69.6477 133.352 66.4375C133.352 63.2273 130.749 60.625 127.539 60.625C124.329 60.625 121.727 63.2273 121.727 66.4375C121.727 69.6477 124.329 72.25 127.539 72.25Z" fill="#B7BAC7"/>
</svg>
