<svg width="168" height="188" viewBox="0 0 168 188" fill="none" xmlns="http://www.w3.org/2000/svg">
<g clip-path="url(#clip0_164_7906)">
<path d="M152.725 174.878C150.256 173.6 147.952 172.027 145.862 170.193C130.976 159.4 96.5781 130.748 90.6305 92.8644C84.4428 53.585 93.976 39.9199 93.976 39.9199C93.976 39.9199 91.6027 74.629 104.636 88.3742C104.636 88.3742 125.189 63.2462 164.197 58.9676C160.169 46.0744 153.093 34.3425 143.569 24.7661C134.044 15.1898 122.352 8.05124 109.483 3.95558C96.6138 -0.140082 82.9472 -1.07215 69.6413 1.23838C56.3355 3.5489 43.7827 9.0339 33.0468 17.2285C22.3109 25.4231 13.7084 36.0858 7.96834 48.3128C2.22832 60.5398 -0.480009 73.9707 0.072883 87.4672C0.625775 100.964 4.42359 114.128 11.1445 125.844C17.8653 137.561 27.3112 147.484 38.6813 154.772C31.184 176.394 42.5358 188 42.5415 188.006C42.5472 188.011 35.942 173.706 46.7734 156.294C57.6047 138.882 69.3682 129.41 71.873 119.028C75.3043 104.756 67.298 100.266 51.2855 99.4711C31.51 98.493 21.9597 107.662 21.9597 107.662C21.9597 107.662 32.2877 84.1529 70.3347 93.139C70.3347 93.139 76.3851 78.6788 72.1418 52.2752C72.1418 52.2752 97.2586 91.0169 79.1187 128.923C74.4293 138.705 60.75 149.035 51.4856 161.528C62.6414 166.203 74.6735 168.418 86.7624 168.023C98.8514 167.629 110.713 164.633 121.54 159.24C136.026 171.109 152.742 174.912 152.748 174.912L152.725 174.878ZM107.295 28.4455L108.896 23.5206L110.498 28.4455H115.644L111.458 31.4943L113.06 36.4193L108.868 33.3705L104.682 36.4193L106.283 31.4943L102.091 28.4455H107.295ZM109.697 57.9551C111.483 57.954 113.229 58.4828 114.715 59.4745C116.201 60.4663 117.359 61.8765 118.044 63.5267C118.728 65.177 118.907 66.9932 118.56 68.7456C118.212 70.498 117.352 72.1079 116.09 73.3716C114.827 74.6353 113.218 75.4961 111.466 75.845C109.715 76.194 107.899 76.0155 106.248 75.332C104.598 74.6486 103.187 73.4909 102.195 72.0055C101.202 70.5201 100.673 68.7736 100.673 66.9871C100.679 64.5966 101.632 62.306 103.324 60.6173C105.015 58.9286 107.307 57.9795 109.697 57.978V57.9551ZM53.0068 22.8742L53.8074 20.4146L54.6024 22.8742H57.193L55.0999 24.3958L55.9005 26.8611L53.8074 25.3396L51.7087 26.8611L52.5093 24.3958L50.4162 22.8742H53.0068ZM57.1644 85.7087C55.4042 85.7098 53.6832 85.1888 52.2191 84.2115C50.755 83.2342 49.6136 81.8446 48.9392 80.2183C48.2649 78.5921 48.0878 76.8024 48.4305 75.0755C48.7732 73.3486 49.6203 71.7622 50.8645 70.5169C52.1087 69.2716 53.6943 68.4233 55.4205 68.0794C57.1468 67.7355 58.9363 67.9115 60.5626 68.5849C62.1889 69.2584 63.579 70.3992 64.557 71.863C65.535 73.3268 66.057 75.0478 66.057 76.8084C66.06 77.9786 65.8323 79.138 65.3868 80.2201C64.9413 81.3022 64.2869 82.2858 63.4609 83.1146C62.6349 83.9434 61.6536 84.6012 60.5732 85.0503C59.4927 85.4993 58.3344 85.7308 57.1644 85.7316V85.7087ZM63.1691 39.8856L64.7703 44.8105L60.5842 41.7675L56.3923 44.8105L57.9936 39.8856L53.8074 36.8425H58.9829L60.5842 31.9176L62.1854 36.8425H67.3609L63.1691 39.8856ZM80.2796 26.4836L72.8052 31.9176L75.6645 23.1259L68.1901 17.6976H77.4259L80.2853 8.91167L83.1447 17.6976H92.3862L84.9118 23.1259L87.7712 31.9176L80.2796 26.4836Z" fill="url(#paint0_radial_164_7906)"/>
<path d="M164.208 59.002C161.435 60.0888 117.806 77.5806 115.204 107.399C114.015 121.047 123.714 138.236 133.55 151.855C147.696 141.503 158.255 126.989 163.751 110.341C169.248 93.6938 169.408 75.7446 164.208 59.002Z" fill="url(#paint1_radial_164_7906)"/>
</g>
<defs>
<radialGradient id="paint0_radial_164_7906" cx="0" cy="0" r="1" gradientUnits="userSpaceOnUse" gradientTransform="translate(117.32 24.7733) scale(250.796 250.852)">
<stop stop-color="#F1A421"/>
<stop offset="1" stop-color="#F1582E"/>
</radialGradient>
<radialGradient id="paint1_radial_164_7906" cx="0" cy="0" r="1" gradientUnits="userSpaceOnUse" gradientTransform="translate(117.32 24.7733) scale(250.796 250.852)">
<stop stop-color="#F1A421"/>
<stop offset="1" stop-color="#F1582E"/>
</radialGradient>
<clipPath id="clip0_164_7906">
<rect width="168" height="188" fill="white"/>
</clipPath>
</defs>
</svg>
